<?xml version="1.0" encoding="iso-8859-1"?>
<!-- Generator: Adobe Illustrator 19.0.0, SVG Export Plug-In . SVG Version: 6.00 Build 0)  -->
<svg version="1.1" id="Layer_2" xmlns="http://www.w3.org/2000/svg" xmlns:xlink="http://www.w3.org/1999/xlink" x="0px" y="0px"
	 viewBox="0 0 512.001 512.001" style="enable-background:new 0 0 300 512.001;" xml:space="preserve">
<g>
	<rect x="239.995" y="88.159" style="fill:#25282C;" width="48.001" height="15.674"/>
	<path style="fill:#25282C;" d="M392,104.163c-20.047,0-39.193,5.195-56.163,15.106V88.163h-16.548
		c-3.461-24.53-22.921-43.99-47.452-47.451V0h-15.674v40.713c-24.53,3.461-43.992,22.92-47.452,47.451h-16.548V136
		c0,17.735-14.429,32.163-32.163,32.163h-31.836v92.457c-8.501-7.735-19.792-12.456-32.163-12.456
		c-23.901,0-43.764,17.621-47.283,40.554C25.785,292.236,8.162,312.1,8.162,336.001v7.837h120.001v168.163h15.674V183.837H160
		c26.378,0,47.837-21.459,47.837-47.837v-32.162h16.001V96c0-22.146,18.016-40.163,40.163-40.163
		c22.146,0,40.163,18.017,40.163,40.163v7.837h16.001V136c0,26.378,21.459,47.837,47.836,47.837h16.164V512h15.674V327.558
		c58.024-4.036,104-52.526,104-111.558C503.837,154.333,453.667,104.163,392,104.163z M128.163,328.163H24.802
		c3.508-13.96,16.166-24.327,31.198-24.327h7.837V296c0-17.735,14.428-32.163,32.162-32.163c17.735,0,32.163,14.428,32.163,32.163
		v32.163H128.163z M399.836,311.843v-143.68h-31.837c-17.1,0-31.12-13.415-32.103-30.271c16.399-11.823,35.713-18.055,56.102-18.055
		c53.025,0,96.163,43.138,96.163,96.163C488.163,266.386,449.21,307.841,399.836,311.843z"/>
	<path style="fill:#25282C;" d="M240.162,511.837h47.674V120.164h-47.674V511.837z M255.836,135.838h16.327v80.327h-16.327V135.838z
		 M255.836,231.837h16.327v168.326h-16.327V231.837z M255.836,415.837h16.327v80.327h-16.327V415.837z"/>
	<path style="fill:#25282C;" d="M176.162,287.837h47.674v-95.673h-47.674V287.837z M191.836,207.837h16.327v24.326h-16.327V207.837z
		 M191.836,247.837h16.327v24.327h-16.327V247.837z"/>
	<path style="fill:#25282C;" d="M176.162,399.837h47.674v-95.673h-47.674V399.837z M191.836,319.836h16.327v24.327h-16.327V319.836z
		 M191.836,359.837h16.327v24.327h-16.327V359.837z"/>
	<path style="fill:#25282C;" d="M176.162,511.837h47.674v-95.673h-47.674V511.837z M191.836,431.836h16.327v24.327h-16.327V431.836z
		 M191.836,471.837h16.327v24.327h-16.327V471.837z"/>
	<path style="fill:#25282C;" d="M304.678,287.837h47.673v-95.673h-47.673V287.837z M320.352,207.837h16.326v24.326h-16.326V207.837z
		 M320.352,247.837h16.326v24.327h-16.326V247.837z"/>
	<path style="fill:#25282C;" d="M304.678,399.837h47.673v-95.673h-47.673V399.837z M320.352,319.836h16.326v24.327h-16.326V319.836z
		 M320.352,359.837h16.326v24.327h-16.326V359.837z"/>
	<path style="fill:#25282C;" d="M304.678,511.837h47.673v-95.673h-47.673V511.837z M320.352,431.836h16.326v24.327h-16.326V431.836z
		 M320.352,471.837h16.326v24.327h-16.326V471.837z"/>
</g>
<g>
</g>
<g>
</g>
<g>
</g>
<g>
</g>
<g>
</g>
<g>
</g>
<g>
</g>
<g>
</g>
<g>
</g>
<g>
</g>
<g>
</g>
<g>
</g>
<g>
</g>
<g>
</g>
<g>
</g>
</svg>
