<?xml version="1.0" encoding="UTF-8" standalone="no"?>
<!-- Created with Inkscape (http://www.inkscape.org/) -->
<svg xmlns:rdf="http://www.w3.org/1999/02/22-rdf-syntax-ns#" xmlns="http://www.w3.org/2000/svg" xmlns:cc="http://web.resource.org/cc/" xmlns:dc="http://purl.org/dc/elements/1.1/" xmlns:svg="http://www.w3.org/2000/svg" xmlns:inkscape="http://www.inkscape.org/namespaces/inkscape" xmlns:sodipodi="http://sodipodi.sourceforge.net/DTD/sodipodi-0.dtd" xmlns:ns1="http://sozi.baierouge.fr" xmlns:xlink="http://www.w3.org/1999/xlink" id="svg2878" viewBox="0 0 493 576" version="1.1" inkscape:version="0.91 r13725">
  <path id="path3211" style="fill:#25282C" d="m202.6 505.93c-2.475-0.54325-5.3208-1.7199-6.324-2.6148-1.4842-1.324-1.7636-1.355-1.5-0.16612 0.42466 1.915-5.2096 1.4378-6.7749-0.5738-0.60438-0.77673-1.4164-1.0948-1.8044-0.70674-0.38802 0.38803-1.0967 0.0725-1.5749-0.70124-0.67886-1.0984-1.1824-1.147-2.2976-0.22145-1.0929 0.907-2.226 0.91214-4.8262 0.0219-1.8689-0.63987-3.623-1.4502-3.898-1.8008-0.81605-1.0402-16.052-4.9286-15.442-3.9408 0.3079 0.49819-0.32923 0.90581-1.4159 0.90581-1.0866 0-2.2027-0.5625-2.4801-1.25-0.37246-0.92305-0.52503-0.89102-0.58333 0.12244-0.0636 1.106-0.37012 1.1308-1.579 0.12756-1.9504-1.6187-1.8936-2.7409 0.43648-8.6166 1.0651-2.6858 3.5831-9.1584 5.5956-14.383 3.011-7.8176 16.039-38.627 23.468-55.5 0.9687-2.2 2.1047-5.1211 2.5244-6.4912 0.41971-1.3702 2.0483-5.268 3.6192-8.6618 1.5708-3.3938 2.856-6.4229 2.856-6.7314 0-0.30851 1.0983-2.9357 2.4406-5.8382 2.6672-5.7673 8.8386-21.771 11.008-28.548 1.1532-3.6014 1.1543-4.4834 0.007-5.631-0.74835-0.74834-1.0821-1.6392-0.74158-1.9797 0.34047-0.34048 0.0389-0.61905-0.67007-0.61905-1.0411 0-1.046-0.29298-0.0252-1.5229 1.0568-1.2734 0.99492-1.4197-0.37756-0.89301-0.90279 0.34643-1.6414 0.9605-1.6414 1.3646s-1.9125 1.3011-4.25 1.9934c-5.4858 1.6247-20.951 8.1563-22.25 9.3969-0.64552 0.61668-0.37965 0.73704 0.75 0.33953 0.9625-0.33868 1.75-0.24128 1.75 0.21646s-1.6875 0.86097-3.75 0.89606c-2.0625 0.0351-9.375 2.1475-16.25 4.6943s-22.625 8.2524-35 12.679c-25.501 9.1221-25.885 9.2955-35.679 16.109-7.0495 4.9041-10.321 5.6197-10.321 2.2576 0-0.84226-0.4487-1.5314-0.99712-1.5314-2.0136 0-9.3771-7.6468-13.941-14.478-8.1396-12.182-17.805-33.142-16.66-36.128 0.25453-0.6633 1.7947-1.4985 3.4225-1.8561 1.6279-0.35754 5.0489-1.975 7.6023-3.5943s4.8834-2.9442 5.1777-2.9442 2.4973-1.35 4.8954-3c2.3982-1.65 4.6468-3 4.9969-3s2.069-1.0783 3.8198-2.3963c3.5203-2.65 15.9-10.074 25.183-15.102 3.3-1.7874 10.725-4.9148 16.5-6.9498s11.918-4.3416 13.651-5.1259c1.7331-0.78423 3.4453-1.4259 3.8049-1.4259 0.62609 0 5.4606-2.0681 14.044-6.0078 2.2-1.0098 7.15-3.2598 11-5l7-3.164-2.5-1.6167c-1.375-0.88919-4.3543-3.5505-6.6207-5.9141s-4.6114-4.2974-5.211-4.2974c-0.59969 0-1.8954-0.85636-2.8793-1.903-0.98393-1.0467-5.8941-5.2092-10.911-9.25-5.0174-4.0408-14.655-11.798-21.417-17.238-6.7617-5.4403-17.507-13.415-23.878-17.723-6.3709-4.3072-14.058-9.6548-17.083-11.884-7.4096-5.4594-27.636-18.925-29.502-19.641-0.97587-0.37448-1.4982-1.9321-1.4982-4.4679 0-2.1412 0.20182-3.893 0.44848-3.893s1.5499 1.0125 2.8961 2.25 6.5739 4.725 11.617 7.75c5.0432 3.025 12.852 8.2875 17.354 11.694 4.5014 3.407 12.234 8.7904 17.184 11.963 7.3152 4.6888 29.523 21.109 31.5 23.291 0.275 0.30345 3.425 3.0013 7 5.9951 3.575 2.9939 7.2381 6.1439 8.1401 7 2.7535 2.6133 12.88 9.5566 13.938 9.5566 0.54711 0 1.3924 0.64333 1.8783 1.4296 0.48595 0.78629 1.6237 1.5382 2.5282 1.671 0.90457 0.13276 2.8531 1.645 4.33 3.3606s4.6067 5.118 6.9551 7.5609c3.7968 3.9497 4.1302 4.6653 3.0094 6.4598-0.69317 1.11-2.04 2.0181-2.993 2.0181-0.95298 0-3.6572 0.87426-6.0094 1.9428-11.793 5.3574-16.036 7.1656-24.777 10.56-5.225 2.029-11.726 4.5964-14.446 5.7053-2.7203 1.1089-7.0303 2.6352-9.5779 3.3918-5.9391 1.7637-19.617 8.9789-32.976 17.395-14.936 9.4096-29.709 18.005-30.944 18.005-1.3715 0-1.4336-0.33571 1.3649 7.3797 4.1451 11.428 12.528 24.489 21.189 33.013l5.6484 5.5589 9.4817-4.9757c5.2149-2.7366 10.332-4.9757 11.371-4.9757s1.8892-0.45 1.8892-1 0.66609-1 1.4802-1c1.2476 0 9.2966-2.8808 17.02-6.0916 1.1-0.4573 4.7-1.5736 8-2.4807 3.3-0.90706 6.4275-2.0494 6.95-2.5385 0.5225-0.48911 1.5399-0.88929 2.2609-0.88929s3.2185-0.8456 5.55-1.8791 8.2891-3.3386 13.239-5.1224c8.0774-2.9109 11.415-4.221 18-7.0666 1.1-0.47532 4.5381-1.9578 7.6403-3.2945 3.1022-1.3366 7.1522-2.789 9-3.2274s3.6972-0.87875 4.1097-0.97855 1.2-0.23771 1.75-0.30646c0.55-0.0688 0.8875-0.6875 0.75-1.375-0.16506-0.82531 1.2789-1.3314 4.25-1.4896 2.475-0.13178 5.625-0.35678 7-0.5 2.2593-0.23533 2.4883 0.0765 2.3785 3.2396-0.20247 5.8314-1.4443 11.105-4.5915 19.5-1.6496 4.4-3.9174 10.475-5.0396 13.5-2.6851 7.238-3.5825 9.3962-9.5633 23-2.7808 6.325-6.8364 16-9.0126 21.5s-7.38 17.766-11.564 27.257c-4.1841 9.4913-7.6074 17.839-7.6074 18.55 0 0.71123-0.39564 1.7206-0.8792 2.2432-0.48356 0.5225-1.4422 2.75-2.1303 4.95-0.68812 2.2-1.6927 4.5567-2.2325 5.237-0.53974 0.68036-0.70505 2.3379-0.36735 3.6834 0.60679 2.4177 2.0447 3.247 7.2735 4.1952 1.4747 0.26742 6.9911 1.5842 12.259 2.9262 5.2675 1.342 10.927 2.4509 12.577 2.4642 3.7923 0.0306 10.466 2.321 11.463 3.9341 0.5643 0.91305 0.9145 0.82178 1.3665-0.35618 0.33428-0.87112 1.2739-1.5838 2.0881-1.5838 0.94579 0 2.0708-2.0762 3.1158-5.75 3.5425-12.454 6.6548-21.694 15.074-44.75 1.4059-3.85 2.944-7.9 3.4181-9 2.1285-4.9384 6.3113-17.76 8.4804-25.995 3.1183-11.839 5.9957-20.436 9.7072-29.005 3.597-8.304 3.6349-8.3548 4.8262-6.471 0.63002 0.99621 0.93526 1.0676 0.94563 0.22104 0.008-0.6875 1.0681-1.25 2.3548-1.25 2.7825 0 3.9718 2.2388 5.6048 10.551 0.64289 3.2722 1.6276 7.1377 2.1884 8.5902 0.56071 1.4524 1.1629 3.7024 1.3383 5 0.35639 2.6375 4.231 13.856 10.485 30.359 2.2928 6.05 5.887 15.725 7.9872 21.5 5.6497 15.535 13.025 32.256 14.799 33.554 0.85662 0.62637 1.6025 2.558 1.6575 4.2926s0.325 3.2632 0.6 3.397 8.6-3.7359 18.5-8.5994c21.198-10.414 23.131-11.286 26.75-12.079 4.229-0.92665 4.3954-0.0392-6.5752-35.064-2.4118-7.7-6.2877-19.4-8.6131-26-4.4358-12.59-13.031-41.913-13.05-44.523-0.006-0.83755-1.3614-5.0287-3.0114-9.3137s-3-8.4372-3-9.2272c0-2.3679 4.3318-1.6518 9.0956 1.5036 3.2636 2.1617 5.8237 3.0031 9.6714 3.1787 2.8781 0.13132 5.233 0.54163 5.233 0.9118 0 0.37016 3.7125 2.61 8.25 4.9773 4.5375 2.3674 9.375 5.0631 10.75 5.9906 1.375 0.92746 4.975 3.3441 8 5.3703s6.9322 4.6847 8.6826 5.9077c8.3306 5.8204 13.898 8.7472 21.044 11.062 7.4885 2.4258 21.716 5.173 31.44 6.0708 2.5664 0.23695 5.6522 0.95853 6.8574 1.6035 1.2052 0.64499 2.5364 0.79352 2.9582 0.33007 0.94219-1.0351 10.018-22.258 10.018-23.426 0-0.46212 1.6206-4.3449 3.6014-8.6284s4.6429-10.038 5.9158-12.788 3.032-6.7539 3.9092-8.8975c0.87717-2.1436 2.3498-4.4496 3.2726-5.1243 1.4484-1.0591 0.93447-1.439-3.7606-2.7798-2.9911-0.85414-8.3633-2.0921-11.938-2.7509-3.575-0.65888-12.086-2.7467-18.914-4.6396-6.8275-1.8929-15.603-3.817-19.5-4.2757-3.8975-0.45872-8.7594-1.5536-10.804-2.4331-2.0448-0.87948-4.3872-1.599-5.2053-1.599-1.8035 0-18.19-6.9652-32.727-13.911-6.6439-3.1744-11.991-5.0888-14.215-5.0888-4.7687 0-6.7278-3.1208-3.4156-5.4408 1.2243-0.85754 2.6327-1.5592 3.1298-1.5592 0.49709 0 3.4345-1.2849 6.5275-2.8554 3.093-1.5704 6.7487-3.2074 8.1237-3.6378 1.375-0.43032 4.975-1.9157 8-3.3008s11.51-4.2511 18.856-6.3688c7.3458-2.1177 13.765-4.1028 14.264-4.4114 0.49925-0.30855 4.164-1.4584 8.144-2.5551 3.9799-1.0968 9.4862-3.0515 12.236-4.3439 12.021-5.6494 22.15-9.4438 24-8.9907 4.367 1.0694 4.852-0.70145 2.5076-9.155-1.2022-4.3347-3.4985-12.966-5.1029-19.181-4.8799-18.903-10.425-34.15-12.432-34.183-0.56513-0.009-1.9926 0.65889-3.1721 1.4851-3.9361 2.7569-12.252 6.592-20.569 9.4852-16.326 5.6798-53.949 23.623-62.083 29.609-3.975 2.9252-4.7667 4.0096-4.385 6.006 0.60164 3.1472-4.0704 8.7746-6.8418 8.2409-1.5244-0.29358-2.0741-1.5959-2.6827-6.356-0.87077-6.8106 0.3098-10.21 3.8547-11.1 1.9963-0.50104 8.5704-9.5544 10.632-14.642 0.39964-0.98609 5.0922-9.0946 10.428-18.019 10.394-17.386 18.084-31.966 22.797-43.226 1.6115-3.85 4.8691-10.764 7.2392-15.364 2.37-4.6003 4.3092-9.1863 4.3092-10.191s0.39627-2.0716 0.8806-2.371c0.48433-0.29934 1.1015-1.5634 1.3714-2.809 0.26995-1.2456 0.82091-3.0499 1.2244-4.0095 0.59867-1.4239-0.43505-2.2723-5.6214-4.6135-5.5804-2.5191-19.564-12.33-22.355-15.685-0.55-0.66099-4.5967-4.0226-8.9927-7.4703s-8.4618-6.91-9.035-7.694c-0.88501-1.2103-1.29-1.1514-2.6841 0.39084-3.1116 3.4423-15.415 27.245-17.311 33.49-0.38834 1.2792-5.662 12.451-11.719 24.826-6.0573 12.375-12.238 25.2-13.735 28.5-1.4968 3.3-3.9506 8.7-5.4529 12s-3.0894 6.9-3.5268 8c-0.99397 2.4996-7.5068 17.258-10.691 24.226-1.3135 2.8743-2.9425 6.9182-3.6202 8.9863-1.2341 3.7666-3.1489 4.9853-5.4727 3.4831-1.1078-0.71607-5.7415-19.383-10.723-43.195-0.97793-4.675-3.2786-14.8-5.1125-22.5-1.834-7.7-4.4761-18.817-5.8715-24.704-1.3954-5.8871-3.8993-18.937-5.5642-29-4.1618-25.154-5.2722-30.882-5.926-30.567-0.30933 0.14894-10.131 5.0767-21.826 10.95-11.695 5.8738-25.074 12.118-29.731 13.876-4.6574 1.7578-8.241 3.5632-7.9636 4.012 0.27738 0.44881 1.8259 6.013 3.4411 12.365 1.6152 6.3519 3.3688 12.356 3.8967 13.343 0.52795 0.98648 1.9495 6.0532 3.159 11.259 1.2095 5.2062 3.7383 14.851 5.6196 21.432 1.8813 6.5816 3.5468 12.657 3.7012 13.5 0.15436 0.84335 1.0409 4.0084 1.97 7.0334 0.92913 3.025 3.9735 13.375 6.7653 23s5.6373 18.4 6.3234 19.5c0.68609 1.1 1.3166 4.8125 1.4011 8.25 0.14712 5.984 0.0509 6.25-2.2617 6.25-2.0807 0-2.6461-0.79665-4.0806-5.75-1.907-6.5849-4.8625-9.8061-19.015-20.725-19.408-14.974-32.421-25.369-42.563-34.001-18.464-15.715-28.594-23.524-30.518-23.524-0.75882 0-1.3797-0.40456-1.3797-0.89903s-5.2875-4.4051-11.75-8.6903-12.806-8.7181-14.098-9.851l-2.3475-2.0597-4.5516 5c-4.8028 5.276-16.433 19.601-24.762 30.5-2.732 3.575-5.5267 7.175-6.2104 8-0.68371 0.825-1.9123 2.4-2.7303 3.5-1.4115 1.8982-1.4888 1.8156-1.519-1.6228-0.03072-3.4998 3.7639-9.1558 13.335-19.877 1.2275-1.375 3.5426-4.3 5.1445-6.5s4.7296-6.0567 6.9504-8.5705 6.004-6.9013 8.407-9.75c2.4031-2.8487 4.7204-5.1795 5.1496-5.1795 0.42921 0 3.6381 1.7852 7.1308 3.9671 5.5198 3.4482 8.9355 5.5561 18.337 11.316 3.3282 2.039 29.323 22.326 38.078 29.717 2.2802 1.925 5.189 4.175 6.4638 5s3.9275 2.8535 5.8948 4.5077c6.4406 5.4157 13.414 10.888 23.577 18.501 5.5 4.1202 10.225 7.7379 10.5 8.0394s2.0142 1.6065 3.865 2.9c3.0415 2.1257 3.3086 2.1691 2.7788 0.45182-0.32237-1.045-1.6844-6.4-3.0268-11.9-1.3423-5.5-3.1814-12.7-4.0868-16-1.7213-6.274-9.0411-33.558-13.146-49-1.3158-4.95-2.8022-9.9-3.3031-11-0.50095-1.1-1.8281-6.05-2.9492-11-1.4606-6.449-2.6185-9.3889-4.0853-10.372-2.3864-1.5995-2.7215-4.128-0.54701-4.128 0.94996 0 1.5-0.95649 1.5-2.6084 0-2.283 0.31192-2.5301 2.5-1.981 1.6426 0.41228 2.5 0.20939 2.5-0.59159 0-0.86734 0.30931-0.90974 1.0721-0.14697 1.5734 1.5734 15.975-4.1 35.878-14.134 14.62-7.3704 22.464-11.747 24.749-13.808 3.7007-3.3374 5.1759-1.7104 5.1759 5.7088 0 3.6024 0.21796 6.9024 0.48436 7.3334 0.2664 0.43104 1.6263 7.7461 3.0219 16.256 3.3507 20.43 5.9614 33.49 10.089 50.472 1.8716 7.7 4.383 18.275 5.581 23.5 1.1979 5.225 3.2213 14 4.4964 19.5s2.5264 11.35 2.7807 13c0.87633 5.6861 1.8876 8.4845 2.8509 7.8892 1.1146-0.68887 5.786-10.736 12.967-27.889 2.7629-6.6 11.1-24.339 18.528-39.419 7.4274-15.081 13.936-28.581 14.464-30 2.3736-6.3813 3.6964-9.2728 9.085-19.859 6.7569-13.274 13.288-23.222 15.246-23.222 0.76705 0 2.3617 1.3581 3.5437 3.0181 1.182 1.6599 6.0501 6.2624 10.818 10.228 4.768 3.9653 10.919 9.1941 13.669 11.619 7.1606 6.3153 11.826 9.0403 20.941 12.23 4.4151 1.5453 8.1921 3.3033 8.3932 3.9068 0.20115 0.60346-0.90748 2.9873-2.4636 5.2974-3.8562 5.7245-4.8141 7.5972-7.3412 14.351-1.1986 3.2035-2.5566 6.28-3.0177 6.8367-0.46115 0.55668-2.9448 5.9448-5.5193 11.974-5.504 12.889-13.852 29.073-22.2 43.038-6.8199 11.409-13.458 23.187-14.502 25.729-0.52417 1.2764 1.5696 0.58029 8-2.66 4.7905-2.4139 12.31-6.0544 16.71-8.09 7.419-3.4323 10.124-4.6591 19.5-8.843 1.925-0.85904 7.1474-2.8932 11.605-4.5204 4.4579-1.6272 13.152-5.5271 19.32-8.6665 12.412-6.3174 12.653-6.3042 14.711 0.80475 4.3788 15.125 6.6178 22.499 7.3613 24.246 0.46816 1.1 1.0758 3.125 1.3503 4.5 0.85516 4.2838 3.8209 15.033 7.3925 26.795 3.8683 12.738 3.6038 14.18-2.6134 14.241-1.9952 0.0195-4.7299 0.64589-6.0772 1.392-1.3473 0.74612-2.9893 1.1495-3.6488 0.89639-0.65957-0.2531-1.4963 0.0205-1.8594 0.60799-0.36309 0.58749-1.7546 1.0682-3.0922 1.0682s-5.6986 1.6881-9.691 3.7513-9.734 4.5182-12.759 5.4555c-3.025 0.93728-10.45 3.2622-16.5 5.1665s-13.462 4.0181-16.471 4.6973c-8.7278 1.97-25.303 9.6077-24.71 11.386 1.2359 3.7077 44.824 21.523 52.748 21.559 3.4198 0.0156 7.229 0.86691 22.433 5.0138 4.4 1.2001 12.275 3.0159 17.5 4.0352 20.469 3.9932 24 5.2262 24 8.3804 0 1.3409-0.87256 2.6387-2.1606 3.2134-3.5213 1.5712-13 18.927-20.196 36.981-2.0037 5.0265-3.6431 9.4017-3.6431 9.7227 0 0.32096-1.0831 2.9584-2.4069 5.8609s-3.2262 7.2256-4.2275 9.6068c-1.7098 4.0659-2.0046 4.2874-4.8431 3.6386-4.5906-1.0494-10.071-2.106-20.522-3.9564-5.225-0.92512-13.54-2.7788-18.479-4.1194-8.1237-2.2052-10.944-3.57-19.731-9.5487-1.4902-1.014-2.9571-1.8436-3.2597-1.8436-0.30259 0-3.8083-2.3862-7.7905-5.3026-13.703-10.036-28.346-18.779-30.353-18.124-1.3716 0.44738-1.5227 0.35461-0.55315-0.33965 1.0846-0.77671 1.0379-1.0687-0.25-1.563-0.87112-0.33428-1.5838-0.19778-1.5838 0.30334 0 0.50111-1.9125 1.0495-4.25 1.2186-4.2075 0.30443-4.2466 0.34247-3.9072 3.8075 0.18853 1.925 0.6977 3.95 1.1315 4.5 0.43379 0.55 1.0305 2.575 1.3259 4.5 0.70823 4.6142 3.1983 14.612 4.732 19 3.8096 10.899 5.9827 17.447 8.4621 25.5 1.5241 4.95 3.3386 10.575 4.0322 12.5 1.6825 4.6695 10.969 34.082 12.931 40.957 1.8839 6.6002 0.8449 8.486-3.9665 7.1992-2.2051-0.58974-3.8096-0.31059-6.1493 1.0699-2.1856 1.2896-3.3775 1.5252-3.8497 0.76111-0.455-0.7362-1.1336-0.50081-2.0271 0.70314-1.0802 1.4556-1.7073 1.588-3.2034 0.67661-1.4154-0.86216-2.2843-0.82322-3.6328 0.16283-1.6915 1.2369-1.6893 1.3145 0.0494 1.7009 1.171 0.26023-2.108 2.4057-9.1781 6.0053-6.05 3.0802-14.18 7.2921-18.067 9.3597-7.3002 3.8837-10.433 4.0607-10.433 0.58952 0-1.0328-0.63184-3.1844-1.4041-4.7814-3.2308-6.6813-9.6753-21.936-12.422-29.404-2.6234-7.1331-7.9947-21.531-9.6993-26-6.6916-17.542-10.893-29.805-13.995-40.849-1.2899-4.5922-2.5361-8.5403-2.7693-8.7735-0.78466-0.78467-3.7103 0.82504-3.7103 2.0414 0 0.66244-0.84553 2.112-1.879 3.2213-1.0472 1.1241-3.549 8.1792-5.6519 15.939-3.5147 12.969-7.0501 23.56-17.5 52.422-4.4635 12.329-7.4406 21.61-11.145 34.745-2.5176 8.9279-2.2287 8.7205-9.825 7.0531zm121.92-148.19c-0.22917-0.21076-1.9917-0.65681-3.9167-0.99124l-3.5-0.60806 3.5 1.3582c3.096 1.2014 5.0946 1.3244 3.9167 0.24114zm-271.92-7.5578c0-0.58246 0.45-1.059 1-1.059s1 0.19844 1 0.44098-0.45 0.7191-1 1.059c-0.55 0.33992-1 0.14148-1-0.44098z"/>
  <metadata>
    <rdf:RDF>
      <cc:Work>
        <dc:format>image/svg+xml</dc:format>
        <dc:type rdf:resource="http://purl.org/dc/dcmitype/StillImage"/>
        <cc:license rdf:resource="http://creativecommons.org/licenses/publicdomain/"/>
        <dc:publisher>
          <cc:Agent rdf:about="http://openclipart.org/">
            <dc:title>Openclipart</dc:title>
          </cc:Agent>
        </dc:publisher>
        <dc:title>Sharism</dc:title>
        <dc:date>2010-04-22T06:54:33</dc:date>
        <dc:description>These are some quick sketches and doodles I made in my notebook on a flight. These are mostly shit, but hey, lets see if useful!</dc:description>
        <dc:source>https://openclipart.org/detail/49939/sharism-by-rejon</dc:source>
        <dc:creator>
          <cc:Agent>
            <dc:title>rejon</dc:title>
          </cc:Agent>
        </dc:creator>
        <dc:subject>
          <rdf:Bag>
            <rdf:li>black</rdf:li>
            <rdf:li>bw</rdf:li>
            <rdf:li>drawings</rdf:li>
            <rdf:li>fast</rdf:li>
            <rdf:li>rapid</rdf:li>
            <rdf:li>rejon</rdf:li>
            <rdf:li>sketch</rdf:li>
            <rdf:li>sketchbook</rdf:li>
            <rdf:li>unchecked</rdf:li>
            <rdf:li>white</rdf:li>
          </rdf:Bag>
        </dc:subject>
      </cc:Work>
      <cc:License rdf:about="http://creativecommons.org/licenses/publicdomain/">
        <cc:permits rdf:resource="http://creativecommons.org/ns#Reproduction"/>
        <cc:permits rdf:resource="http://creativecommons.org/ns#Distribution"/>
        <cc:permits rdf:resource="http://creativecommons.org/ns#DerivativeWorks"/>
      </cc:License>
    </rdf:RDF>
  </metadata>
</svg>
