<?xml version="1.0" encoding="UTF-8" standalone="no"?>
<!-- Created with Inkscape (http://www.inkscape.org/) -->
<svg xmlns:rdf="http://www.w3.org/1999/02/22-rdf-syntax-ns#" xmlns="http://www.w3.org/2000/svg" xmlns:cc="http://web.resource.org/cc/" xmlns:dc="http://purl.org/dc/elements/1.1/" xmlns:svg="http://www.w3.org/2000/svg" xmlns:inkscape="http://www.inkscape.org/namespaces/inkscape" xmlns:sodipodi="http://sodipodi.sourceforge.net/DTD/sodipodi-0.dtd" xmlns:ns1="http://sozi.baierouge.fr" xmlns:xlink="http://www.w3.org/1999/xlink" id="svg2842" viewBox="0 0 496 540" version="1.1" inkscape:version="0.91 r13725">
  <path id="path3239" style="fill:#25282C" d="m309.23 500.84c-0.0573-1.3921 0.25478-2.1721 0.6936-1.7332 0.43881 0.4388 0.48571 1.5778 0.10419 2.5311-0.42156 1.0535-0.73448 0.74055-0.79784-0.79785h0.00005zm44.41-22.089c-2.8028-1.5685-2.9768-8.1329-0.27494-10.375 1.6743-1.3896 1.9809-1.1131 1.9809 1.7862 0 3.0222 0.43185 3.3513 3.6316 2.7673 1.9974-0.36453 7.1971-1.202 11.555-1.8611 4.3579-0.65906 9.112-1.3859 10.565-1.6152 1.4526-0.22931 2.9383-0.74206 3.3014-1.1394 0.36316-0.39738 3.9532-2.3117 7.978-4.2542 8.5381-4.1206 18.164-12.931 21.283-19.479 6.0905-12.788 6.597-15.116 6.0477-27.805-0.6419-14.828-2.9424-23.978-8.9403-35.557-15.14-29.229-15.205-42.843-0.35796-75.196 3.0051-6.5485 22.053-25.085 23.89-23.249 0.47593 0.47591 0.007 1.3949-1.0391 2.0423-2.9508 1.8237-0.58603 3.0477 2.5969 1.3442 1.5527-0.83101 2.6524-2.5186 2.4438-3.7502-0.48132-2.8411 6.8313-12.12 9.5516-12.12 2-0.00003 5.2163-2.4204 5.2163-3.9256 0-1.4298-8.6038-5.1123-20.469-8.7608-23.879-7.3428-34.441-13.949-37.598-23.514-1.8748-5.6808 0.69523-21.558 6.3664-39.329 10.405-32.606 15.269-65.627 12.198-82.811-2.3496-13.147-7.5767-20.698-17.897-25.853-10.173-5.0808-24.883-6.4037-27.741-2.4949-1.1138 1.5232-1.342 3.0111-0.59915 3.9062 1.6346 1.9695 0.14281 3.1796-3.9494 3.2039-1.8763 0.01063-4.1927 0.51562-5.1476 1.1211-2.4002 1.522-8.1682 0.24085-8.1682-1.8143 0-0.9271-0.89139-2.0277-1.9809-2.4457-1.0895-0.41806-1.9809-1.3221-1.9809-2.0089 0-1.5326 12.682-9.4821 13.624-8.5401 0.37173 0.37174 1.904 0.01861 3.4051-0.78476 1.5011-0.80336 6.7825-1.4986 11.736-1.545 7.1249-0.06666 11.339 0.8116 20.164 4.2029 6.1361 2.358 12.459 5.2335 14.05 6.3901 4.1771 3.0357 10.91 18.408 12.481 28.494 2.4906 15.997-3.8623 53.919-14.716 87.839-4.1936 13.107-5.8161 25.409-4.0548 30.746 1.4214 4.3068 2.9586 5.4507 16.255 12.096 8.077 4.0367 15.633 7.3395 16.79 7.3395 3.2628 0 22.895 7.8603 25.485 10.203 4.7688 4.3149 2.4692 7.9074-10.234 15.988-10.056 6.3965-11.108 7.1729-15.636 11.534-2.313 2.2278-5.091 4.6048-6.1734 5.2823-4.9067 3.0709-13.304 16.541-17.209 27.607-3.2235 9.1328-4.1957 14.167-4.3286 22.415-0.16247 10.084 0.15952 11.356 6.202 24.502 11.519 25.061 13.075 30.572 13.233 46.88 0.19784 20.331-2.9173 30.038-13.334 41.548-5.5774 6.1632-9.8419 9.4303-15.887 12.171-13.739 6.2298-39.707 11.397-44.315 8.8183zm34.968-9.9567c-0.95329-0.38148-2.0923-0.33457-2.5311 0.1042-0.43882 0.4388 0.34115 0.75092 1.7332 0.69358 1.5384-0.0634 1.8513-0.37628 0.79785-0.79783v0.00005zm-244.56-14.28c-19.018-4.2074-29.644-11.494-40.124-27.513-9.3961-14.363-9.4726-14.53-12.167-26.657-1.9077-8.5844-2.3719-17.394-2.5038-47.514-0.15909-36.322-1.1521-51.489-3.4645-52.918-0.64143-0.39642-1.186-1.7257-1.2102-2.9538-0.05529-2.816-3.5016-6.9768-8.4805-10.239-3.849-2.522-7.4894-2.7116-29.651-1.5446-3.3013 0.17386-6.0346-0.31899-6.3142-1.1386-0.53778-1.576 16.254-20.344 18.202-20.344 1.2122 0 2.6432-1.3514 9.7807-9.2372 2.1789-2.4074 3.1596-3.9163 2.1793-3.3532-1.4504 0.83313-1.4958 0.48824-0.24376-1.8512 0.84629-1.5813 2.3912-3.2023 3.4332-3.6021 1.042-0.39983 1.8945-1.4539 1.8945-2.3424 0-0.88853 2.355-4.2419 5.2334-7.452s5.9973-7.3222 6.9309-9.138c0.93362-1.8158 2.0545-3.5986 2.4908-3.9617 1.5615-1.2997 7.8872-18.572 8.8222-24.088 1.3189-7.7818 0.84994-18.424-1.0681-24.235-0.88496-2.6814-1.5587-11.011-1.4972-18.509 0.12598-15.364 3.3787-27.151 11.803-42.775 7.1652-13.288 25.309-37.265 28.804-38.063 1.0278-0.23483 1.8687-1.0127 1.8687-1.7286 0-0.71593 0.58747-0.93862 1.3055-0.49488 0.74859 0.46266 0.96997-0.06751 0.519-1.2426-0.55301-1.4411 0.0164-2.0494 1.918-2.0494 3.4274 0 4.8523 2.2218 2.9189 4.5514-0.81915 0.98702-1.0189 2.0521-0.44384 2.3669 0.57506 0.31475 0.24984 0.3709-0.7227 0.1248-1.9166-0.48508-11.138 9.0899-15.399 15.989-3.7181 6.0203-10.391 15.799-11.318 16.585-0.42814 0.36316-1.6187 2.5916-2.6457 4.9522-1.027 2.3605-2.3165 4.2919-2.8655 4.2919-0.54902 0-0.9982 1.3534-0.9982 3.0076s-0.8057 4.1798-1.7904 5.6124c-2.5323 3.6841-5.8896 14.643-6.8667 22.413-0.55008 4.3746 0.16071 12.174 2.1062 23.11 2.6132 14.69 2.7553 17.452 1.2904 25.091-2.2451 11.708-8.1654 26.266-14.379 35.359-5.749 8.4129-15.988 19.892-16.068 18.014-0.02839-0.66558-0.84183 0.57262-1.8076 2.7516-0.96574 2.179-5.3994 7.9155-9.8526 12.748-4.4532 4.8324-8.0967 9.1408-8.0967 9.5741 0 0.43337 3.8821 0.78796 8.6269 0.78796 12.648 0 21.846 4.8781 26.144 13.866 4.9246 10.298 6.0806 21.171 6.1072 57.445 0.03721 50.819 2.4724 62.028 17.446 80.313 12.556 15.332 31.331 21.746 55.973 19.122 13.417-1.4288 19.08-0.52523 19.08 3.0442 0 2.6156-2.7574 3.8112-9.244 4.008-3.2684 0.0992-10.697 0.52656-16.507 0.94974-7.0135 0.51079-13.45 0.13114-19.148-1.1296zm4.7041-382.49c-3.5411-3.4465-1.0042-5.666 2.8628-2.5045 2.2402 1.8314 2.5562 2.7172 1.3206 3.7014-1.1199 0.89202-2.419 0.52036-4.1834-1.1969z"/>
  <metadata>
    <rdf:RDF>
      <cc:Work>
        <dc:format>image/svg+xml</dc:format>
        <dc:type rdf:resource="http://purl.org/dc/dcmitype/StillImage"/>
        <cc:license rdf:resource="http://creativecommons.org/licenses/publicdomain/"/>
        <dc:publisher>
          <cc:Agent rdf:about="http://openclipart.org/">
            <dc:title>Openclipart</dc:title>
          </cc:Agent>
        </dc:publisher>
        <dc:title>Curly Braces</dc:title>
        <dc:date>2010-04-22T06:54:35</dc:date>
        <dc:description>These are some quick sketches and doodles I made in my notebook on a flight. These are mostly shit, but hey, lets see if useful!</dc:description>
        <dc:source>https://openclipart.org/detail/50131/curly-braces-by-rejon</dc:source>
        <dc:creator>
          <cc:Agent>
            <dc:title>rejon</dc:title>
          </cc:Agent>
        </dc:creator>
        <dc:subject>
          <rdf:Bag>
            <rdf:li>black</rdf:li>
            <rdf:li>bw</rdf:li>
            <rdf:li>drawings</rdf:li>
            <rdf:li>fast</rdf:li>
            <rdf:li>rapid</rdf:li>
            <rdf:li>rejon</rdf:li>
            <rdf:li>sketch</rdf:li>
            <rdf:li>sketchbook</rdf:li>
            <rdf:li>unchecked</rdf:li>
            <rdf:li>white</rdf:li>
          </rdf:Bag>
        </dc:subject>
      </cc:Work>
      <cc:License rdf:about="http://creativecommons.org/licenses/publicdomain/">
        <cc:permits rdf:resource="http://creativecommons.org/ns#Reproduction"/>
        <cc:permits rdf:resource="http://creativecommons.org/ns#Distribution"/>
        <cc:permits rdf:resource="http://creativecommons.org/ns#DerivativeWorks"/>
      </cc:License>
    </rdf:RDF>
  </metadata>
</svg>
