<?xml version="1.0" encoding="UTF-8" standalone="no"?>
<svg
   xmlns:dc="http://purl.org/dc/elements/1.1/"
   xmlns:cc="http://creativecommons.org/ns#"
   xmlns:rdf="http://www.w3.org/1999/02/22-rdf-syntax-ns#"
   xmlns:svg="http://www.w3.org/2000/svg"
   xmlns="http://www.w3.org/2000/svg"
   viewBox="0 0 2933.3333 2933.3333"
   height="300"
   width="300"
   xml:space="preserve"
   id="svg2"
   version="1.1"><metadata
     id="metadata8"><rdf:RDF><cc:Work
         rdf:about=""><dc:format>image/svg+xml</dc:format><dc:type
           rdf:resource="http://purl.org/dc/dcmitype/StillImage" /></cc:Work></rdf:RDF></metadata><defs
     id="defs6" /><g
     transform="matrix(1.3333333,0,0,-1.3333333,0,2933.3333)"
     id="g10"><g
       transform="scale(0.1)"
       id="g12"><g
         transform="scale(1.34969)"
         id="g14"><path
           id="path16"
           style="fill:#25282C;fill-opacity:1;fill-rule:nonzero;stroke:none"
           d="m 2576.67,9500.88 c 26.62,89.17 -23.3,181.79 -109.82,209.22 -785.42,236.66 -1530.911,593.4 -2213.161,1059.8 -76.542,51.5 -176.3856,30.9 -226.3072,-48 -49.9187,-78.9 -29.95183,-181.8 46.5933,-233.2 C 782.851,10005.1 1558.29,9631.22 2376.99,9384.26 c 16.64,-3.43 29.95,-6.86 46.59,-6.86 69.89,3.43 133.13,48.02 153.09,123.48 z M 14258.1,11023.8 c 702.3,312.1 1367.9,710 1976.9,1190.1 73.2,54.9 86.6,161.3 30,236.7 -53.3,75.5 -156.5,89.2 -229.7,30.9 -589.1,-459.6 -1231.3,-847.2 -1910.3,-1149 -83.2,-37.8 -119.8,-133.8 -86.5,-219.6 26.6,-65.1 86.5,-102.9 149.8,-102.9 29.9,0 49.9,6.9 69.8,13.8 z M 15356.4,840.338 c 56.6,72.016 49.9,178.342 -20,236.652 -678.9,593.39 -1311.2,1258.8 -1870.3,1972.22 -56.6,72.02 -159.8,82.32 -229.7,24.01 -69.9,-58.31 -79.9,-164.63 -23.3,-236.65 572.5,-730.61 1218.1,-1409.73 1913.7,-2016.829 29.9,-27.414 66.5,-41.118 106.4,-41.118 46.6,0 93.2,20.523 123.2,61.715 z M 1584.91,68.6093 3358.76,2634.15 c 53.25,75.5 36.61,181.82 -36.6,233.24 -73.22,54.91 -176.39,37.79 -226.31,-37.71 L 1322,264.134 C 1268.75,188.637 1285.39,82.3162 1358.6,30.8953 1388.56,10.2975 1421.83,0 1451.79,0 c 49.92,0 103.17,24.0072 133.12,68.6093 z M 8527.2,13668.2 c 73.27,823.2 73.27,1656.7 0,2479.9 -9.93,92.6 -86.47,161.2 -176.34,150.9 -89.87,-10.3 -156.41,-89.2 -146.48,-181.8 73.28,-802.6 73.28,-1615.5 0,-2418.1 -9.93,-92.6 56.61,-174.9 146.48,-181.8 6.67,0 10,0 16.6,0 79.87,-3.4 153.14,61.7 159.74,150.9 z M 4650.05,8039.75 c -46.59,-836.93 46.6,-2044.24 738.83,-3038.91 668.93,-960.36 1840.42,-1550.35 3041.85,-1550.35 99.8,0 199.67,3.41 296.22,13.71 1241.32,99.5 2449.45,819.74 3234.85,1924.21 738.8,1039.27 1101.5,2380.39 1025,3772.91 -46.6,819.75 -252.9,1450.88 -619,1882.98 -688.9,809.5 -1863.7,915.8 -3008.56,953.6 -1171.45,41.1 -2516,20.5 -3634.23,-716.9 C 4789.83,10663.6 4696.65,8958.95 4650.05,8039.75 Z M 8430.73,3114.34 c -1307.93,0 -2579.25,641.4 -3308.1,1690.97 -748.81,1073.58 -848.65,2363.21 -798.73,3254.97 v 0 c 29.96,586.57 79.87,1265.67 236.29,1893.34 196.36,775.18 519.18,1303.38 988.43,1612.08 1194.78,788.9 2599.23,809.5 3820.62,768.3 1218.06,-41.2 2469.36,-157.8 3244.86,-1070.1 412.6,-487.1 649,-1186.8 698.9,-2082 83.2,-1471.41 -302.9,-2891.43 -1088.3,-3992.43 C 11386,4009.58 10088.1,3237.85 8753.55,3131.53 c -106.48,-10.3 -216.35,-17.19 -322.82,-17.19 z m 379.42,7556.16 c -975.18,0 -1867.07,-116.6 -2482.76,-967.26 C 5685.08,8814.89 5538.64,7583.57 5967.96,6636.92 6543.71,5364.4 8104.58,4671.58 9375.91,5120.87 c 1357.79,480.18 2106.59,2016.83 2246.39,3323.57 73.2,686.01 -26.6,1210.78 -296.2,1560.66 -432.6,559 -1258,641.4 -1840.39,651.7 l -123.14,3.4 c -186.34,6.9 -372.75,10.3 -552.42,10.3 z M 8567.13,4647.57 c -1184.75,0 -2386.18,720.24 -2895.37,1845.24 -475.91,1056.46 -319.49,2424.98 392.71,3409.37 832.02,1149.02 2086.72,1121.62 3301.44,1094.12 l 123.14,-3.4 c 648.95,-13.7 1574.15,-109.8 2090.05,-778.6 326.1,-421.88 449.3,-1028.98 366.1,-1807.58 C 11862,7624.7 11595.7,6849.56 11193,6225.27 10747,5532.44 10154.7,5038.55 9479.04,4801.91 9186.16,4698.99 8876.68,4647.57 8567.13,4647.57 Z m -143.07,5206.59 c -139.81,0 -286.21,-10.29 -426.02,-37.73 -379.34,-72.03 -678.89,-291.54 -865.27,-637.97 -252.93,-466.48 -276.22,-1111.29 -59.9,-1677.2 v 0 c 229.64,-610.58 772.1,-1070.17 1374.46,-1173.08 615.69,-106.32 1277.99,185.23 1604.17,706.6 186.4,294.96 292.8,675.71 329.5,1197.02 23.3,322.44 23.3,730.58 -179.8,1025.55 -239.6,346.43 -708.82,466.47 -1091.58,531.64 -199.67,30.87 -439.28,65.17 -685.56,65.17 z M 8693.6,5968.1 c -99.8,0 -203,6.81 -302.8,24 -715.58,120.03 -1351.21,665.34 -1624.11,1382.24 -249.6,658.52 -219.65,1413.14 79.87,1965.33 236.29,435.6 612.39,713.43 1091.61,802.63 442.62,82.3 885.24,30.8 1224.73,-27.5 442.62,-75.4 995.1,-216.06 1304.6,-668.8 269.5,-387.58 266.2,-898.65 239.6,-1245.1 -43.3,-579.61 -163.1,-1011.78 -382.8,-1354.75 -342.7,-538.5 -984.99,-878.05 -1630.7,-878.05 z m -415.94,2164.27 c 0,-120.1 79.87,-240.13 189.67,-284.74 89.87,-37.71 206.34,-34.3 352.75,10.3 89.87,27.49 146.48,58.31 169.74,96.03 26.6,41.19 26.6,116.61 26.6,192.11 0,82.32 -3.26,157.74 -33.27,205.76 -29.93,54.89 -106.47,92.61 -196.34,99.5 -179.67,10.3 -346.08,-34.3 -432.61,-120.03 -53.28,-51.49 -76.54,-116.62 -76.54,-198.93 z m 329.48,-648.3 c -93.21,0 -179.75,17.19 -259.61,48.01 -229.61,92.62 -392.76,339.56 -396.02,593.39 v 0 c 0,178.34 59.87,332.75 176.34,445.88 219.68,216.13 549.16,219.54 678.97,209.24 199.67,-13.71 369.41,-113.21 455.88,-264.06 66.6,-120.1 76.61,-253.84 76.61,-370.46 3.33,-116.62 -3.34,-253.83 -76.61,-373.86 -89.8,-147.51 -246.21,-205.82 -352.75,-240.13 -106.47,-30.82 -206.34,-48.01 -302.81,-48.01" /></g></g></g></svg>