<?xml version="1.0" encoding="UTF-8" standalone="no"?>
<!-- Created with Inkscape (http://www.inkscape.org/) -->
<svg xmlns:rdf="http://www.w3.org/1999/02/22-rdf-syntax-ns#" xmlns="http://www.w3.org/2000/svg" xmlns:cc="http://web.resource.org/cc/" xmlns:dc="http://purl.org/dc/elements/1.1/" xmlns:svg="http://www.w3.org/2000/svg" xmlns:inkscape="http://www.inkscape.org/namespaces/inkscape" xmlns:sodipodi="http://sodipodi.sourceforge.net/DTD/sodipodi-0.dtd" xmlns:ns1="http://sozi.baierouge.fr" xmlns:xlink="http://www.w3.org/1999/xlink" id="svg2890" viewBox="0 0 351 348" version="1.1" inkscape:version="0.91 r13725">
  <path id="path3042" style="fill:#25282C" d="m179.6 36.014c4.5259 1.424 9.5365 3.8013 10.533 4.9974 0.3049 0.36606 4.5196 3.6591 9.3659 7.3178 4.8464 3.6587 9.8477 7.6501 11.114 8.8697 1.2664 1.2196 4.2861 3.9966 6.7104 6.1712 7.5694 6.7897 25.7 26.187 30.311 32.429 6.9009 9.3414 18.333 33.124 23.814 49.542 4.3926 13.157 5.6174 17.22 8.188 27.159 0.31602 1.222 0.81367 7.7455 1.1059 14.497 0.72363 16.719-1.4653 26.895-9.8736 45.9-8.4857 19.18-14.673 28.429-24.349 36.397-17.683 14.561-28.207 24.468-30.919 29.105-3.6857 6.3019-6.1648 6.5589-5.8013 0.60142 0.14535-2.3829 1.0185-5.4836 1.9402-6.8904 2.1246-3.2426 2.1018-3.532-0.26376-3.3442-3.1058 0.24657-2.8792-3.2429 1.4363-22.111 6.7862-29.67 9.1602-41.207 12.872-62.552 3.2228-18.534 3.5733-22.755 3.6373-43.794 0.0725-23.842-0.15999-26.591-3.1407-37.142-0.94748-3.3538-2.0262-7.3452-2.3971-8.8697-0.37092-1.5245-1.0829-3.7696-1.5823-4.9892-0.49933-1.2196-2.0298-5.4604-3.401-9.424-2.7112-7.837-4.9619-12.513-10.939-22.729-5.4182-9.2599-10.613-14.949-28.215-30.896-7.7152-6.9903-9.374-9.0267-8.3541-10.256 1.5123-1.8222 2.3867-1.8211 8.2077 0.01zm23.501 25.359c12.192 12.889 25.329 42.949 31.268 71.55 1.8303 8.8136 1.5343 44.457-0.47209 56.849-3.3259 20.54-8.4822 48.287-10.493 56.462-1.1247 4.5734-3.348 14.801-4.9406 22.729-1.5927 7.9273-3.1655 15.637-3.4952 17.132-0.53086 2.4077 0.0117 2.1503 4.7443-2.251 2.9391-2.7333 7.3394-6.4508 9.7786-8.2611 8.7523-6.4956 21.104-16.101 23.141-17.994 2.7252-2.534 15.327-28.764 18.24-37.963 5.3353-16.854 5.853-35.357 1.458-52.109-5.9602-22.719-16.591-47.928-27.76-65.829-6.1049-9.7847-42.477-46.127-44.384-44.347-0.26321 0.24574 1.0482 2.0608 2.9143 4.0335zm43.58 203.16c0 0.30489 0.24946 0.55435 0.55435 0.55435 0.3049 0 0.55436-0.24946 0.55436-0.55435 0-0.3049-0.24946-0.55436-0.55436-0.55436-0.30489 0-0.55435 0.24946-0.55435 0.55436zm-2.2174 2.2174c0 0.30489 0.24946 0.55435 0.55435 0.55435 0.3049 0 0.55436-0.24946 0.55436-0.55435 0-0.3049-0.24946-0.55436-0.55436-0.55436-0.30489 0-0.55435 0.24946-0.55435 0.55436zm-18.848 16.631c0 0.3049 0.24946 0.55436 0.55436 0.55436 0.30489 0 0.55435-0.24946 0.55435-0.55436 0-0.30489-0.24946-0.55435-0.55435-0.55435-0.3049 0-0.55436 0.24946-0.55436 0.55435zm-125.84-213.33c3.049 0.41149 8.5371 1.2782 12.196 1.9262 3.6587 0.64791 8.8974 1.3965 11.641 1.6635 9.664 0.94038 16.767 3.2019 22.806 7.2613 6.4629 4.3444 12.66 12.375 12.668 16.416 0.008 3.8518-8.9608 15.937-16.143 21.754-22.084 17.884-47.968 19.849-61.309 4.6537-4.425-5.0398-5.4002-11.608-2.9665-19.98 2.0408-7.02 6.4551-14.407 9.2503-15.48 1.4892-0.57147 1.5416-0.86737 0.29032-1.6407-1.2326-0.76177-1.0131-1.5986 1.1398-4.345 1.4665-1.8708 3.7889-3.7186 5.161-4.1063 3.195-0.90265 3.138-1.5311-0.39416-4.3476-4.0054-3.1938-1.6535-4.7623 5.6605-3.7752zm13.875 8.2128c-0.01-0.60979-2.3873-1.2607-5.2834-1.4464-4.2204-0.27063-4.9904-0.0616-3.8796 1.0533 2.1115 2.1192 1.6528 3.3858-0.75864 2.0952-3.3167-1.7751-3.9413-1.3672-1.6996 1.1099 1.7633 1.9484 1.8628 2.7563 0.72619 5.8994-0.7243 2.003-1.3777 6.3505-1.4521 9.661l-0.1352 6.0192-0.96498-6.6522c-1.2348-8.5125-1.7563-9.7896-3.6937-9.0462-0.91535 0.35125-1.7933-0.18532-2.0795-1.2709-0.45168-1.7136-0.5065-1.7082-0.62382 0.0614-0.0707 1.0671-0.86417 1.9402-1.7632 1.9402-1.8309 0-5.0177 5.4493-5.0177 8.5802 0 1.1209-0.99784 3.9952-2.2174 6.3874-1.235 2.4224-2.1685 6.3331-2.1069 8.8269 0.092 3.7292 0.24287 4.0143 0.9024 1.7058 0.72092-2.5234 0.86-2.3743 1.5518 1.6631 0.90572 5.2853 1.2384 5.7812 6.5198 9.7164 3.2866 2.4489 5.7397 3.1905 12.422 3.7554 10.021 0.84707 16.158-0.63205 25.742-6.2036 11.424-6.6415 23.731-19.532 23.691-24.815-0.0212-2.7833-8.8675-11.834-11.567-11.834-0.98389 0-2.0585-0.70268-2.3881-1.5615-0.9752-2.5413-23.677-7.6868-25.092-5.6873-0.51595 0.72902-0.8211 0.7445-0.83242 0.0422zm-15.538-1.1087c0 0.3049 0.24946 0.55435 0.55436 0.55435 0.30489 0 0.55435-0.24945 0.55435-0.55435s-0.24946-0.55435-0.55435-0.55435c-0.3049 0-0.55436 0.24945-0.55436 0.55435zm-13.305 19.957c0 0.30489 0.24946 0.55435 0.55435 0.55435 0.3049 0 0.55436-0.24946 0.55436-0.55435 0-0.3049-0.24946-0.55436-0.55436-0.55436-0.30489 0-0.55435 0.24946-0.55435 0.55436zm44.953 102.58c18.21 1.9181 34.879 17.382 34.869 32.346-0.004 6.5204-1.8219 10.284-7.8635 16.285-10.869 10.796-27.941 17.871-43.125 17.871-4.8108 0-9.0554-0.49892-9.4322-1.1087-0.37688-0.60979-1.6784-1.1087-2.8923-1.1087-6.5234 0-16.642-8.9028-19.843-17.459-2.4817-6.633-2.7931-16.499-0.70299-22.271 0.73624-2.0332 3.2806-5.6504 5.6541-8.0381 4.6886-4.7167 7.5295-5.8616 4.5826-1.8468-4.4365 6.0443-6.1517 11.377-6.1517 19.125 0 13.37 5.6948 21.398 18.359 25.878 8.0855 2.8607 12.845 2.9887 22.544 0.60647 15.932-3.913 34.508-18.45 34.406-26.926-0.0191-1.5868-1.2638-4.8807-2.7661-7.3198-1.5023-2.4392-2.734-5.1968-2.7372-6.128-0.006-1.5482-4.2814-6.6309-7.9348-9.4311-0.82222-0.63021-4.2246-2.313-7.5609-3.7396-5.5832-2.3874-7.2187-2.5547-20.551-2.1025-10.354 0.35116-15.518 1.0063-18.105 2.2971-1.991 0.9932-4.2728 1.5553-5.0709 1.249-0.79804-0.30624-3.0387 0.77916-4.9792 2.412-4.5332 3.8144-5.491 2.8807-1.685-1.6426 3.9525-4.6972 7.1493-6.1705 17.653-8.1352 10.062-1.8821 12.416-1.9642 23.334-0.81412zm-20.563 7.1869c0 0.3049-0.24946 0.55436-0.55435 0.55436-0.3049 0-0.55436-0.24946-0.55436-0.55436 0-0.30489 0.24946-0.55435 0.55436-0.55435 0.30489 0 0.55435 0.24946 0.55435 0.55435z"/>
  <metadata>
    <rdf:RDF>
      <cc:Work>
        <dc:format>image/svg+xml</dc:format>
        <dc:type rdf:resource="http://purl.org/dc/dcmitype/StillImage"/>
        <cc:license rdf:resource="http://creativecommons.org/licenses/publicdomain/"/>
        <dc:publisher>
          <cc:Agent rdf:about="http://openclipart.org/">
            <dc:title>Openclipart</dc:title>
          </cc:Agent>
        </dc:publisher>
        <dc:title>Emoticon Smiley</dc:title>
        <dc:date>2010-04-22T06:54:30</dc:date>
        <dc:description>These are some quick sketches and doodles I made in my notebook on a flight. These are mostly shit, but hey, lets see if useful!</dc:description>
        <dc:source>https://openclipart.org/detail/49759/emoticon-smiley-by-rejon</dc:source>
        <dc:creator>
          <cc:Agent>
            <dc:title>rejon</dc:title>
          </cc:Agent>
        </dc:creator>
        <dc:subject>
          <rdf:Bag>
            <rdf:li>black</rdf:li>
            <rdf:li>bw</rdf:li>
            <rdf:li>drawings</rdf:li>
            <rdf:li>fast</rdf:li>
            <rdf:li>rapid</rdf:li>
            <rdf:li>rejon</rdf:li>
            <rdf:li>sketch</rdf:li>
            <rdf:li>sketchbook</rdf:li>
            <rdf:li>unchecked</rdf:li>
            <rdf:li>white</rdf:li>
          </rdf:Bag>
        </dc:subject>
      </cc:Work>
      <cc:License rdf:about="http://creativecommons.org/licenses/publicdomain/">
        <cc:permits rdf:resource="http://creativecommons.org/ns#Reproduction"/>
        <cc:permits rdf:resource="http://creativecommons.org/ns#Distribution"/>
        <cc:permits rdf:resource="http://creativecommons.org/ns#DerivativeWorks"/>
      </cc:License>
    </rdf:RDF>
  </metadata>
</svg>
