<?xml version="1.0" encoding="UTF-8"?>
<!DOCTYPE svg PUBLIC "-//W3C//DTD SVG 1.1//EN" "http://www.w3.org/Graphics/SVG/1.1/DTD/svg11.dtd">
<!-- Creator: CorelDRAW -->
<svg xmlns="http://www.w3.org/2000/svg" xml:space="preserve" width="2048px" height="2048px" style="shape-rendering:geometricPrecision; text-rendering:geometricPrecision; image-rendering:optimizeQuality; fill-rule:evenodd; clip-rule:evenodd"
viewBox="0 0 2048 2048"
 xmlns:xlink="http://www.w3.org/1999/xlink">
 <defs>
  <style type="text/css">
   <![CDATA[
    .fil1 {fill:none}
    .fil0 {fill:#ffffff;fill-rule:nonzero}
   ]]>
  </style>
 </defs>
 <g id="Layer_x0020_1">
  <metadata id="CorelCorpID_0Corel-Layer"/>
  <path class="fil0" d="M1479.15 789.064c-17.5347,-2.07047 -33.4299,10.4658 -35.5004,28.0004 -2.07047,17.5347 10.4658,33.4299 28.0004,35.5004 83.9221,9.96142 151.965,22.5225 197.984,36.7677 31.7551,9.83032 49.5591,15.8291 49.5591,16.8567l0 740.753c-15.5173,18.2291 -92.2678,36.9177 -208.309,52.8414 -127.676,17.5217 -298.562,28.2154 -486.883,28.2154 -188.321,0 -359.207,-10.6937 -486.883,-28.2154 -116.041,-15.9236 -192.791,-34.6122 -208.309,-52.8414l0 -740.753c0,-1.02756 17.8087,-7.02875 49.5721,-16.8591 46.0241,-14.2465 114.079,-26.8099 198.016,-36.7713 17.5347,-2.07047 30.0709,-17.9658 28.0004,-35.5004 -2.07047,-17.5347 -17.9658,-30.0709 -35.5004,-28.0004 -87.2942,10.3595 -159.197,23.7744 -209.267,39.2729 -60.7583,18.8055 -94.8225,44.9398 -94.8225,77.8583l0 744.922 0 9.47009c0,12.5102 7.17993,23.341 17.6433,28.604 33.7406,31.2366 122.407,56.8654 246.168,73.8485 131.075,17.9882 305.036,28.9666 495.382,28.9666 190.345,0 364.307,-10.9784 495.382,-28.9666 123.761,-16.9831 212.427,-42.613 246.168,-73.8485 10.4634,-5.263 17.6433,-16.0937 17.6433,-28.604l0 -9.47009 0 -744.922c0,-32.9162 -34.0607,-59.0504 -94.8095,-77.856 -50.0634,-15.4973 -121.954,-28.9099 -209.235,-39.2693z"/>
  <path class="fil0" d="M1478.87 789.029c-17.5347,-2.07047 -33.4299,10.4658 -35.5004,28.0004 -2.07047,17.5347 10.4658,33.4299 28.0004,35.5004 84.0072,9.96142 152.123,22.5284 198.189,36.7796 31.8036,9.83859 49.637,15.8469 49.637,16.8803 0,11.7177 -70.9335,28.1988 -185.614,45.3709 -130.045,19.4717 -310.181,31.5166 -509.578,31.5166 -199.396,0 -379.532,-12.0449 -509.578,-31.5166 -114.68,-17.1721 -185.614,-33.6532 -185.614,-45.3709 0,-1.03937 17.8642,-7.05709 49.7185,-16.9051 46.1174,-14.2571 114.31,-26.8276 198.409,-36.7902 17.5347,-2.07047 30.0709,-17.9658 28.0004,-35.5004 -2.07047,-17.5347 -17.9658,-30.0709 -35.5004,-28.0004 -87.4453,10.3583 -159.486,23.7803 -209.66,39.2918 -60.8481,18.8114 -94.969,44.9599 -94.969,77.9044 0,48.4193 91.8556,86.3835 240.365,108.621 133.146,19.9358 316.609,32.2677 518.828,32.2677 202.219,0 385.682,-12.3319 518.828,-32.2677 148.51,-22.2378 240.365,-60.202 240.365,-108.621 0,-32.928 -34.0902,-59.0705 -94.8875,-77.8796 -50.1154,-15.5043 -122.08,-28.9217 -209.44,-39.2811z"/>
  <path class="fil0" d="M885.951 1759.26c0,17.6728 14.328,32.0008 32.0008,32.0008 17.6728,0 32.0008,-14.328 32.0008,-32.0008l0 -490.878 148.095 0 0 489.103c0,17.6728 14.328,32.0008 32.0008,32.0008 17.6728,0 32.0008,-14.328 32.0008,-32.0008l0 -521.104c0,-17.6728 -14.328,-32.0008 -32.0008,-32.0008l-212.097 0c-17.6728,0 -32.0008,14.328 -32.0008,32.0008l0 522.879z"/>
  <path class="fil0" d="M1346.94 1745.95c0,17.6728 14.328,32.0008 32.0008,32.0008 17.6728,0 32.0008,-14.328 32.0008,-32.0008l0 -331.875 148.095 0 0 305.538c0,17.6728 14.328,32.0008 32.0008,32.0008 17.6728,0 32.0008,-14.328 32.0008,-32.0008l0 -337.539c0,-17.6728 -14.328,-32.0008 -32.0008,-32.0008l-212.097 0c-17.6728,0 -32.0008,14.328 -32.0008,32.0008l0 363.875z"/>
  <path class="fil0" d="M637.058 1745.95c0,17.6728 14.328,32.0008 32.0008,32.0008 17.6728,0 32.0008,-14.328 32.0008,-32.0008l0 -363.875c0,-17.6728 -14.328,-32.0008 -32.0008,-32.0008l-212.097 0c-17.6728,0 -32.0008,14.328 -32.0008,32.0008l0 337.539c0,17.6728 14.328,32.0008 32.0008,32.0008 17.6728,0 32.0008,-14.328 32.0008,-32.0008l0 -305.538 148.095 0 0 331.875z"/>
  <path class="fil0" d="M1507.07 628.236l0 219.67 0 5.87363c0,12.4051 -7.06064,23.1614 -17.3799,28.4717 -25.226,20.4425 -81.1111,36.7004 -156.796,47.087 -81.9485,11.2453 -190.439,18.1099 -308.892,18.1099 -118.452,0 -226.942,-6.86457 -308.89,-18.1099 -75.6863,-10.3866 -131.574,-26.6433 -156.799,-47.0882 -10.3193,-5.31142 -17.3776,-16.0665 -17.3776,-28.4705l0 -5.87363 0 -219.67c0,-37.0028 60.9508,-64.6312 159.489,-79.3855 83.1745,-12.4547 197.609,-20.1591 323.577,-20.1591 125.971,0 240.404,7.70434 323.579,20.1591 98.5383,14.7543 159.489,42.3827 159.489,79.3855zm-64.0016 212.223l0 -212.223c0,-0.301181 -40.0264,-6.44646 -104.738,-16.1351 -80.0764,-11.9906 -191.18,-19.4079 -314.328,-19.4079 -123.147,0 -234.251,7.41733 -314.327,19.4079 -64.7115,9.68859 -104.738,15.8339 -104.738,16.1351l0 212.224c11.4933,7.77993 54.587,16.8331 118.674,25.6276 78.5493,10.7787 183.964,17.3587 300.391,17.3587 116.428,0 221.843,-6.57993 300.392,-17.3587 64.089,-8.79449 107.183,-17.85 118.674,-25.6288z"/>
  <path class="fil0" d="M1024 528.693c125.971,0 240.404,7.70434 323.579,20.1591 98.5383,14.7543 159.489,42.3827 159.489,79.3855 0,37.0004 -60.9508,64.6288 -159.49,79.3843 -83.1757,12.4536 -197.609,20.1579 -323.577,20.1579 -125.968,0 -240.401,-7.70434 -323.576,-20.1579 -98.5394,-14.7555 -159.49,-42.3839 -159.49,-79.3843 0,-37.0028 60.9508,-64.6312 159.489,-79.3855 83.1745,-12.4547 197.609,-20.1591 323.577,-20.1591zm314.328 83.4095c-80.0764,-11.9906 -191.18,-19.4079 -314.328,-19.4079 -123.147,0 -234.251,7.41733 -314.327,19.4079 -64.7115,9.68859 -104.738,15.8339 -104.738,16.1351 0,0.297638 40.0264,6.4441 104.739,16.1339 80.0764,11.9894 191.179,19.4067 314.326,19.4067 123.147,0 234.251,-7.41733 314.327,-19.4067 64.7126,-9.68977 104.739,-15.8362 104.739,-16.1339 0,-0.301181 -40.0264,-6.44646 -104.738,-16.1351z"/>
  <path class="fil0" d="M992.124 608.25c0,17.6043 14.2713,31.8756 31.8756,31.8756 17.6043,0 31.8756,-14.2713 31.8756,-31.8756l-0.0011811 -320.251c0,-17.6043 -14.2713,-31.8756 -31.8756,-31.8756 -17.6043,0 -31.8756,14.2713 -31.8756,31.8756l0.0011811 320.251z"/>
  <path class="fil0" d="M1249.87 424.941l-211.617 105.81 0.0614174 0.121654c-15.8067,7.90394 -35.0292,1.49646 -42.9331,-14.3102 -2.38229,-4.76339 -3.46181,-9.83505 -3.37914,-14.8158l0 -213.748c0,-17.6728 14.328,-32.0008 32.0008,-32.0008 6.2067,0 12,1.76929 16.9063,4.82835l211.595 105.797 -14.25 28.5 14.3114 -28.6217c15.8067,7.90394 22.2142,27.1264 14.3102,42.9331 -3.69567,7.39134 -9.86694,12.7264 -17.0055,15.5055zm-193.866 25.6843l111 -55.5012 -111 -55.5 0 111.001z"/>
 </g>
 <rect class="fil1" width="2048" height="2048"/>
</svg>
