<?xml version="1.0" encoding="UTF-8" standalone="no"?><!DOCTYPE svg PUBLIC "-//W3C//DTD SVG 1.1//EN" "http://www.w3.org/Graphics/SVG/1.1/DTD/svg11.dtd"><svg width="100%" height="100%" viewBox="0 0 64 64" version="1.1" xmlns="http://www.w3.org/2000/svg" xmlns:xlink="http://www.w3.org/1999/xlink" xml:space="preserve" xmlns:serif="http://www.serif.com/" style="fill-rule:evenodd;clip-rule:evenodd;strokeLinecap:round;strokeLinejoin:round;strokeMiterlimit:2;"><rect id="_96---Menu-Cover-Book" serif:id="96 - Menu Cover Book" x="0" y="0" width="64" height="64" style="fill:none;"/><path d="M53.199,18.567c0.09,-0.49 -0.02,-0.996 -0.303,-1.406c-0.284,-0.41 -0.719,-0.69 -1.209,-0.779c-5.736,-1.044 -23.188,-4.221 -28.924,-5.266c-0.49,-0.089 -0.996,0.02 -1.406,0.304c-0.41,0.284 -0.69,0.718 -0.779,1.209c-1.248,6.854 -5.602,30.769 -6.849,37.623c-0.09,0.49 0.02,0.996 0.303,1.406c0.284,0.41 0.719,0.69 1.209,0.779c5.736,1.045 23.188,4.222 28.924,5.266c0.49,0.089 0.996,-0.02 1.406,-0.304c0.41,-0.283 0.69,-0.718 0.779,-1.209c1.248,-6.854 5.602,-30.769 6.849,-37.623Z" style="fill:none;stroke:#ffffff;strokeWidth:2px;"/><path d="M40.555,23.564c0.498,-2.736 -1.316,-5.357 -4.051,-5.855c0,0 0,0 0,0c-2.735,-0.497 -5.356,1.316 -5.854,4.051c-0.1,0.551 -0.167,0.918 -0.167,0.918l9.905,1.803c0,0 0.067,-0.367 0.167,-0.917Z" style="fill:none;stroke:#ffffff;strokeWidth:2px;"/><path d="M29.105,30.246l9.906,1.803" style="fill:none;stroke:#ffffff;strokeWidth:2px;"/><path d="M29.697,26.992c0,0 0.482,-0.333 0.963,-0.665c0.255,-0.177 0.569,-0.245 0.874,-0.189c0.304,0.055 0.575,0.23 0.751,0.484c0,0.001 0.001,0.002 0.001,0.002c0.367,0.531 1.095,0.663 1.625,0.296c0.015,-0.01 0.03,-0.021 0.045,-0.031c0.554,-0.383 1.314,-0.245 1.698,0.309c0.01,0.015 0.02,0.03 0.031,0.045c0.367,0.53 1.094,0.663 1.625,0.296c0.001,-0.001 0.001,-0.001 0.002,-0.002c0.254,-0.176 0.569,-0.244 0.874,-0.188c0.304,0.055 0.575,0.23 0.751,0.484c0.333,0.481 0.666,0.963 0.666,0.963" style="fill:none;stroke:#ffffff;strokeWidth:2px;"/><path d="M39.096,46.669l-15.223,-2.771l-0.99,5.437l15.224,2.771l0.989,-5.437Z" style="fill:none;stroke:#ffffff;strokeWidth:2px;"/><path d="M53.199,18.567c0.09,-0.49 -0.02,-0.996 -0.303,-1.406c-0.284,-0.41 -0.719,-0.69 -1.209,-0.779c-5.736,-1.044 -23.188,-4.221 -28.924,-5.266c-0.49,-0.089 -0.996,0.02 -1.406,0.304c-0.41,0.284 -0.69,0.718 -0.779,1.209c-1.248,6.854 -5.602,30.769 -6.849,37.623c-0.09,0.49 0.02,0.996 0.303,1.406c0.284,0.41 0.719,0.69 1.209,0.779c5.736,1.045 23.188,4.222 28.924,5.266c0.49,0.089 0.996,-0.02 1.406,-0.304c0.41,-0.283 0.69,-0.718 0.779,-1.209c1.248,-6.854 5.602,-30.769 6.849,-37.623Z" style="fill:none;stroke:#ffffff;strokeWidth:2px;"/><path d="M14.302,47.101l-3.827,-35.949c-0.053,-0.496 0.093,-0.992 0.406,-1.38c0.313,-0.388 0.768,-0.635 1.263,-0.688c5.798,-0.617 23.437,-2.495 29.234,-3.113c0.496,-0.053 0.992,0.094 1.38,0.407c0.388,0.313 0.635,0.767 0.688,1.263c0.137,1.288 0.295,2.769 0.295,2.769" style="fill:none;stroke:#ffffff;strokeWidth:2px;"/><path d="M40.555,23.564c0.498,-2.736 -1.316,-5.357 -4.051,-5.855c0,0 0,0 0,0c-2.735,-0.497 -5.356,1.316 -5.854,4.051c-0.1,0.551 -0.167,0.918 -0.167,0.918l9.905,1.803c0,0 0.067,-0.367 0.167,-0.917Z" style="fill:none;stroke:#ffffff;strokeWidth:2px;"/><path d="M29.105,30.246l9.906,1.803" style="fill:none;stroke:#ffffff;strokeWidth:2px;"/><path d="M29.697,26.992c0,0 0.482,-0.333 0.963,-0.665c0.255,-0.177 0.569,-0.245 0.874,-0.189c0.304,0.055 0.575,0.23 0.751,0.484c0,0.001 0.001,0.002 0.001,0.002c0.367,0.531 1.095,0.663 1.625,0.296c0.015,-0.01 0.03,-0.021 0.045,-0.031c0.554,-0.383 1.314,-0.245 1.698,0.309c0.01,0.015 0.02,0.03 0.031,0.045c0.367,0.53 1.094,0.663 1.625,0.296c0.001,-0.001 0.001,-0.001 0.002,-0.002c0.254,-0.176 0.569,-0.244 0.874,-0.188c0.304,0.055 0.575,0.23 0.751,0.484c0.333,0.481 0.666,0.963 0.666,0.963" style="fill:none;stroke:#ffffff;strokeWidth:2px;"/><path d="M39.096,46.669l-15.223,-2.771l-0.99,5.437l15.224,2.771l0.989,-5.437Z" style="fill:none;stroke:#ffffff;strokeWidth:2px;"/></svg>