<?xml version="1.0" encoding="UTF-8"?>
<!DOCTYPE svg PUBLIC "-//W3C//DTD SVG 1.1//EN" "http://www.w3.org/Graphics/SVG/1.1/DTD/svg11.dtd">
<!-- Creator: CorelDRAW -->
<svg xmlns="http://www.w3.org/2000/svg" xml:space="preserve" width="2048px" height="2048px" style="shape-rendering:geometricPrecision; text-rendering:geometricPrecision; image-rendering:optimizeQuality; fill-rule:evenodd; clip-rule:evenodd"
viewBox="0 0 2048 2048"
 xmlns:xlink="http://www.w3.org/1999/xlink">
 <defs>
  <style type="text/css">
   <![CDATA[
    .fil1 {fill:none}
    .fil0 {fill:#ffffff;fill-rule:nonzero}
   ]]>
  </style>
 </defs>
 <g id="Layer_x0020_1">
  <metadata id="CorelCorpID_0Corel-Layer"/>
  <path class="fil0" d="M554.208 907.602l176.704 -212.042c10.3075,-12.3957 14.6138,-27.8315 13.2413,-42.7595 -1.36654,-14.8748 -8.41182,-29.2335 -20.8075,-39.541 -12.3957,-10.3075 -27.8315,-14.6126 -42.7595,-13.2413 -14.8748,1.36654 -29.2323,8.41182 -39.5398,20.8075l-296.913 356.295 -24.4996 -20.3752 24.5835 20.4862c-1.07244,1.2874 -2.22402,2.46732 -3.44292,3.54213 -4.75512,5.07756 -8.63741,11.061 -11.3882,17.6917 -2.8252,6.81142 -4.38662,14.4 -4.38662,22.4776 0,16.2083 6.56812,30.8823 17.1862,41.5004 10.6181,10.6181 25.2921,17.1862 41.5004,17.1862l497.224 0c17.6728,0 32.0008,14.328 32.0008,32.0008l0 572.586 419.668 0 0 -573.139c0,-17.6728 14.328,-32.0008 32.0008,-32.0008 1.45984,0 2.89607,0.100394 4.30394,0.28937 39.5481,2.58425 100.234,19.3158 150.664,88.3678 47.4756,65.0067 86.0764,178.348 86.0764,375.061 0,16.2083 6.5693,30.8823 17.1874,41.5004 10.6181,10.6181 25.291,17.1862 41.4992,17.1862 16.2083,0 30.8823,-6.5693 41.5004,-17.1874 10.6181,-10.6181 17.1874,-25.291 17.1874,-41.4992 0,-244.778 -48.5835,-402.146 -127.019,-500.553 -74.0516,-92.9068 -176.377,-133.916 -289.883,-147.169 -20.9599,13.2945 -43.8095,23.9764 -68.0847,31.5733 -27.274,8.53583 -56.1709,13.1398 -86.0103,13.1398 -26.1496,0 -51.7855,-3.62126 -76.4115,-10.3973 -21.561,-5.93268 -42.0532,-14.2618 -61.1682,-24.6709 -53.4331,7.09016 -107.968,16.115 -160.637,24.8292 -102.307,16.9288 -197.675,32.7095 -276.976,32.7095 -17.6728,0 -32.0008,-14.328 -32.0008,-32.0008 0,-8.85001 3.59292,-16.8602 9.39922,-22.6536zm225.703 -171.292l-131.893 158.27c59.3871,-5.50748 125.79,-16.4953 195.517,-28.0335 54.7642,-9.06142 111.561,-18.4618 170.588,-26.0894 7.66654,-1.67362 15.9591,-0.551575 23.2264,3.78898l-16.4079 27.4736 16.3748 -27.3756c17.0941,10.2083 35.5701,18.1902 55.0241,23.5441 18.6992,5.14489 38.6953,7.89568 59.6611,7.89568 23.465,0 45.9697,-3.55276 67.0111,-10.1374 21.4075,-6.69922 41.4945,-16.5886 59.713,-29.113 6.19961,-4.66654 14.1012,-7.10788 22.4303,-6.27284l-0.00944883 0.0956694c133.982,13.4386 255.823,60.4595 344.834,172.134 87.0816,109.254 141.02,279.608 141.02,540.304 0,33.874 -13.735,64.5461 -35.9386,86.7497 -22.2036,22.2036 -52.8768,35.9386 -86.7509,35.9386 -33.874,0 -64.5461,-13.7339 -86.7497,-35.9374 -22.2036,-22.2036 -35.9386,-52.8768 -35.9386,-86.7509 0,-181.123 -32.9953,-281.994 -73.5756,-337.56 -23.3563,-31.9819 -49.0618,-48.0142 -71.4662,-55.7493l0 566.732c0,17.6728 -14.328,32.0008 -32.0008,32.0008l-483.67 0c-17.6728,0 -32.0008,-14.328 -32.0008,-32.0008l0 -572.586 -465.224 0c-33.874,0 -64.5473,-13.7339 -86.7509,-35.9374 -22.2036,-22.2036 -35.9374,-52.8768 -35.9374,-86.7509 0,-16.526 3.34016,-32.4012 9.38741,-46.9784 6.06733,-14.6244 14.9469,-27.8658 25.9736,-39.0638l295.688 -354.826c21.5776,-25.9488 51.6367,-40.6949 82.7894,-43.5579 31.0973,-2.85827 63.3107,6.16418 89.2595,27.7429 25.9477,21.5776 40.6949,51.6378 43.5579,82.7906 2.85945,31.0961 -6.163,63.3095 -27.7429,89.2595z"/>
  <path class="fil0" d="M1033.7 299.783l258.482 0c15.6165,0 28.6181,11.1886 31.4339,25.9843l51.3874 205.552 -31.0004 7.7504 31.0453 -7.76103c4.28622,17.1449 -6.13937,34.5201 -23.2843,38.8063 -2.80276,0.700394 -5.61142,1.0063 -8.36812,0.955513l-362.143 0c-17.6728,0 -32.0008,-14.328 -32.0008,-32.0008 0,-3.32953 0.509056,-6.53977 1.45276,-9.55867l51.3674 -205.478 -0.0448819 -0.0106299c3.68977,-14.7591 17.0799,-24.5386 31.6725,-24.2398zm233.544 64.0016l-209.234 0 -35.8193 143.284 280.873 0 -35.8205 -143.284z"/>
  <path class="fil0" d="M1376.13 539.071c0,-17.6728 -14.328,-32.0008 -32.0008,-32.0008 -17.6728,0 -32.0008,14.328 -32.0008,32.0008 0,60.8233 -17.8795,115.403 -46.7847,154.474 -26.9008,36.3626 -63.267,58.8556 -102.713,58.8556 -39.4477,0 -75.8138,-22.4929 -102.717,-58.8556 -28.9051,-39.0697 -46.7847,-93.6497 -46.7847,-154.474 0,-17.6728 -14.328,-32.0008 -32.0008,-32.0008 -17.6728,0 -32.0008,14.328 -32.0008,32.0008 0,74.6682 22.7528,142.756 59.5359,192.475 38.7886,52.428 93.1772,84.8564 153.967,84.8564 60.7902,0 115.179,-32.4284 153.964,-84.8564 36.7831,-49.7197 59.5359,-117.809 59.5359,-192.475z"/>
  <path class="fil0" d="M1483.16 879.807c-4.48701,17.0516 5.69882,34.513 22.7504,39 17.0516,4.48701 34.513,-5.69882 39,-22.7504l29.8866 -112.823 0.0708662 0.0188977c3.83622,-14.4839 -2.89843,-29.2807 -15.4488,-36.2055l-82.0512 -54.73 -17.7496 26.5004 17.7567 -26.6221c-14.7024,-9.8067 -34.5721,-5.83701 -44.3788,8.86536 -2.33858,3.50551 -3.89292,7.3063 -4.70552,11.1933l-44.0457 164.38c-4.55552,17.0516 5.57363,34.5697 22.6252,39.1252 17.0516,4.55552 34.5697,-5.57363 39.1252,-22.6252l32.9764 -123.067 28.2638 18.8516 -24.0756 90.8883z"/>
  <path class="fil0" d="M1586.48 532.779c4.6937,-16.9819 -5.26772,-34.5567 -22.2496,-39.2504 -16.9819,-4.6937 -34.5567,5.26772 -39.2504,22.2496l-60.5292 218.502c-4.6937,16.9819 5.26772,34.5567 22.2496,39.2504 16.9819,4.6937 34.5567,-5.26772 39.2504,-22.2496l60.5292 -218.502z"/>
  <path class="fil0" d="M1509 511.169c-8.5252,-2.27717 -17.2843,2.7874 -19.5614,11.3126 -2.27717,8.5252 2.7874,17.2843 11.3126,19.5614l19.3181 5.17678c8.5252,2.27717 17.2843,-2.7874 19.5614,-11.3126 2.27717,-8.5252 -2.7874,-17.2843 -11.3126,-19.5614l-19.3181 -5.17678z"/>
 </g>
 <rect class="fil1" width="2048" height="2048"/>
</svg>
