<svg xmlns="http://www.w3.org/2000/svg" width="48" height="48" viewBox="0 0 48 48">
  <g>
    <path d="M17.217,27.153a5.576,5.576,0,1,0-5.576-5.576.728.728,0,0,0,1.455,0A4.121,4.121,0,1,1,17.217,25.7a5.582,5.582,0,0,0-5.576,5.576.729.729,0,0,0,.728.727h9.7a.728.728,0,0,0,0-1.456h-8.9A4.127,4.127,0,0,1,17.217,27.153Z" fill="#ffffff"/>
    <path d="M35.631,18.424a.728.728,0,0,0-.728.729v5.332H28.02V16.727a.728.728,0,0,0-1.455,0v8.486a.728.728,0,0,0,.727.727H34.9v5.334a.728.728,0,0,0,1.455,0V19.153A.728.728,0,0,0,35.631,18.424Z" fill="#ffffff"/>
    <path d="M24,0A24,24,0,1,0,48,24,24.028,24.028,0,0,0,24,0ZM35.885,43.147l-1.616-2.8a.719.719,0,0,0-1.247.718l1.618,2.805a22.39,22.39,0,0,1-9.92,2.656V43.291a.72.72,0,0,0-1.44,0v3.236a22.407,22.407,0,0,1-9.921-2.656l1.618-2.8a.719.719,0,0,0-1.247-.718l-1.616,2.8a22.708,22.708,0,0,1-7.261-7.262l2.8-1.615a.719.719,0,1,0-.719-1.246l-2.8,1.617a22.4,22.4,0,0,1-2.657-9.92H4.709a.721.721,0,0,0,0-1.442H1.473a22.4,22.4,0,0,1,2.657-9.92l2.8,1.618a.719.719,0,1,0,.72-1.245l-2.8-1.616a22.728,22.728,0,0,1,7.261-7.262l1.616,2.8a.721.721,0,0,0,.624.36.7.7,0,0,0,.359-.1.719.719,0,0,0,.264-.982l-1.618-2.8a22.379,22.379,0,0,1,9.921-2.658V4.709a.72.72,0,0,0,1.44,0V1.473a22.4,22.4,0,0,1,9.921,2.658l-1.619,2.8a.718.718,0,0,0,.264.982.71.71,0,0,0,.359.1.722.722,0,0,0,.625-.36l1.616-2.8a22.7,22.7,0,0,1,7.26,7.262l-2.8,1.616a.719.719,0,0,0,.361,1.343.7.7,0,0,0,.359-.1l2.8-1.618a22.4,22.4,0,0,1,2.657,9.92H43.294a.721.721,0,0,0,0,1.442h3.235a22.4,22.4,0,0,1-2.657,9.92l-2.8-1.617a.719.719,0,1,0-.719,1.246l2.8,1.615A22.724,22.724,0,0,1,35.885,43.147Z" fill="#ffffff"/>
  </g>
</svg>
