<?xml version="1.0" encoding="UTF-8"?>
<!DOCTYPE svg PUBLIC "-//W3C//DTD SVG 1.1//EN" "http://www.w3.org/Graphics/SVG/1.1/DTD/svg11.dtd">
<!-- Creator: CorelDRAW -->
<svg xmlns="http://www.w3.org/2000/svg" xml:space="preserve" width="2048px" height="2048px" style="shape-rendering:geometricPrecision; text-rendering:geometricPrecision; image-rendering:optimizeQuality; fill-rule:evenodd; clip-rule:evenodd"
viewBox="0 0 2048 2048"
 xmlns:xlink="http://www.w3.org/1999/xlink">
 <defs>
  <style type="text/css">
   <![CDATA[
    .fil0 {fill:none}
    .fil1 {fill:#ffffff;fill-rule:nonzero}
   ]]>
  </style>
 </defs>
 <g id="Layer_x0020_1">
  <metadata id="CorelCorpID_0Corel-Layer"/>
  <rect class="fil0" width="2048" height="2048"/>
  <rect class="fil0" x="255.996" y="255.996" width="1536" height="1536"/>
  <g id="_444482624">
   <path id="_444485120" class="fil1" d="M1474.97 1296.06c-28.7705,0 -54.9284,-11.6776 -73.917,-30.5693 -19.0051,-18.9083 -30.7831,-44.9752 -30.7831,-73.7422 0,-28.7587 11.7898,-54.9012 30.8138,-73.8863 18.9662,-18.926 45.1087,-30.652 73.8863,-30.652 28.7646,0 54.8764,11.7614 73.8402,30.7465 18.9154,18.9343 30.6189,45.0449 30.6189,73.7918 0,28.7551 -11.7331,54.8315 -30.7004,73.7611 -18.9189,18.8811 -45.0036,30.5504 -73.7587,30.5504zm-33.163 -71.5512c8.44016,8.39646 20.1697,13.5886 33.163,13.5886 12.9343,0 24.6012,-5.18386 33.0036,-13.5697 8.33623,-8.31851 13.4917,-19.9004 13.4917,-32.7792 0,-12.9189 -5.21221,-24.6047 -13.6358,-33.0366 -8.3504,-8.35867 -19.9642,-13.5378 -32.8595,-13.5378 -12.9532,0 -24.6732,5.22993 -33.1311,13.6701 -8.40001,8.38111 -13.6051,20.0185 -13.6051,32.9044 0,12.8469 5.19331,24.4229 13.5732,32.7603z"/>
   <path id="_444483392" class="fil1" d="M1499.38 679.936l-1201.41 0 0.00236221 -63.8268 1175.36 1.38189 -2.92677 -155.707c0,-94.2615 -40.989,-102.013 -129.39,-102.295l-959.139 159.607 -0.0011811 -0.00708662c-35.589,8.08938 -57.3414,18.8398 -69.5481,32.2193 -10.6795,11.7071 -14.3551,27.2988 -14.3551,46.1788l0 961.012c0,36.3366 14.6976,69.1831 38.4555,92.9434l0 0.113386c23.7095,23.7154 56.5689,38.3681 92.941,38.3681l1070.02 0c36.5292,0 69.4985,-14.6799 93.3036,-38.4402 23.7449,-23.7036 38.4142,-56.5595 38.4142,-92.9847l0 -157.037 57.9638 0 0 157.037c0,52.2933 -21.2398,99.6438 -55.6241,133.965 -34.3205,34.2579 -81.7005,55.4233 -134.058,55.4233l-1070.02 0c-52.1847,0 -99.5268,-21.202 -133.866,-55.5201l-0.056693 0.056693c-34.2496,-34.2544 -55.4374,-81.5835 -55.4374,-133.925l0 -961.012c0,-32.7177 7.55906,-61.0406 29.5252,-85.1209 20.2725,-22.2213 52.1611,-39.0237 101.362,-49.9867l1.47165 -0.340158 961.886 -160.064c151.199,-14.4225 194.116,55.5567 194.116,187.345l2.8063 160.276 -31.7882 -27.6236c104.388,0 189.682,84.4843 189.682,189.047l0 155.723 -57.9638 0 0 -155.723c0,-36.2611 -14.687,-69.0438 -38.4544,-92.7178 -23.7969,-23.7024 -56.7532,-38.3658 -93.2635,-38.3658z"/>
   <path id="_444485552" class="fil1" d="M1312.3 992.704l405.74 0c24.7713,0 47.2701,10.1126 63.5599,26.4012 16.2886,16.2898 26.4012,38.791 26.4012,63.5611l0 202.87c0,24.7713 -10.1126,47.2713 -26.4012,63.5611 -16.2898,16.2886 -38.7886,26.4012 -63.5599,26.4012l-405.74 0c-24.7701,0 -47.2713,-10.1126 -63.5611,-26.4012 -16.2886,-16.2898 -26.4012,-38.7886 -26.4012,-63.5611l0 -202.87c0,-24.7701 10.1126,-47.2713 26.4012,-63.5611 16.2898,-16.2886 38.791,-26.4012 63.5611,-26.4012zm405.74 64.0016l-405.74 0c-7.1067,0 -13.591,2.9315 -18.3106,7.65001 -4.71851,4.71969 -7.65001,11.2039 -7.65001,18.3106l0 202.87c0,7.1067 2.9315,13.591 7.65001,18.3106 4.71969,4.71851 11.2039,7.65001 18.3106,7.65001l405.74 0c7.10552,0 13.5898,-2.9315 18.3095,-7.65001 4.71851,-4.71969 7.65001,-11.2051 7.65001,-18.3106l0 -202.87c0,-7.1067 -2.9315,-13.591 -7.65001,-18.3106 -4.71969,-4.71851 -11.2039,-7.65001 -18.3095,-7.65001z"/>
  </g>
 </g>
</svg>
