<?xml version="1.0" encoding="UTF-8"?>
<svg viewBox="0 0 1155 866" xmlns="http://www.w3.org/2000/svg">
 <g fill-rule="evenodd" stroke-width=".5">
  <path d="m0 433v-433h1155v866h-1155v-433zm606-227l0.5 1 0.5 2.5 0.5 2.5 0.3 1.5 0.2 1.5 0.2 1q0.3 1 0.3 8t-1.5 10.5-8.2 10.3q-6.8 6.7-8.6 10-1.7 3.2-7.4 6l-5.8 2.7-2 0.5-2 0.5-0.2 0.3-0.3 0.2-0.3 0.2-0.2 0.3-0.2 0.3-0.3 0.2h-0.5v4l-1 0.2-1 0.3 0.2 0.3 0.3 0.2 0.5 1 0.5 1 0.3 0.2 0.2 0.3 2 2q2 2 2.5 2.3l0.5 0.2h0.2q0.3 0 0.6 0.5l0.2 0.5 1 0.2 1 0.3 0.2 0.3 0.3 0.2 0.3 0.2 0.2 0.3 1 0.5 1 0.5 0.2 0.3 0.3 0.2 0.3 0.2 0.2 0.3 0.2 0.3 0.3 0.2 0.3 0.2 0.2 0.3 3.8 4.3q3.7 4.2 3.2 8.2t-3.8 6.8q-3.2 2.7-5 3.4-1.7 0.8-2.7 3.3t-1.3 6.5q-0.2 4 2.6 5.5 2.7 1.5 4.7 3.5t2.3 5.5q0.2 3.5 1.2 3.5t1.2-1q0.3-1 0.8-2l0.5-1 0.5 1 0.5 1-0.5 9.5q-0.5 9.5-3 16t-4 12.5-5 11.5-3.8 5.7l-0.2 0.3-0.2 0.3-0.3 0.2-0.3 0.2-0.2 0.3-0.2 0.3-0.3 0.2-0.3 0.2-0.2 0.3-0.2 0.3-0.3 0.2-0.3 0.2-0.2 0.3-0.2 0.3-0.3 0.2-0.3 0.2-0.2 0.3-1 0.5-1 0.5v0.5l2-0.2 2-0.3 0.2-0.3 0.3-0.2 0.3-0.2 0.2-0.3 2-0.5 2-0.5 1.2 0.3q1.3 0.2 2 1 0.8 0.7 1.3 1l0.5 0.2v-0.5l0.2-0.3 0.3-0.2 0.3-0.2 0.2-0.3 1-0.5q1-0.5 3.8-3.8 2.7-3.2 7.7-14.2t6.5-23.5l1.5-12.5 0.3-0.2 0.2-0.3 1-0.5 1-0.5 6.5 0.5q6.5 0.5 16 8t30 15 25.5 7.5 6.8 3.7q1.7 3.8 1.2 12.3t-4 16.5-7.2 13q-3.8 5-4.8 5h-1l0.5 0.8q0.5 0.7 1.5 1.2t2 0.8l1 0.2v2h-3l-0.2 1-0.3 1-0.3 0.2-0.2 0.3v0.5l6.2-1q6.3-1 8-2.8 1.8-1.7 2.3-1.4l0.5 0.2h0.5l0.3-0.2 0.2-0.3 0.2-0.3 0.3-0.2 0.3-0.2 0.2-0.3 0.2-0.3 0.3-0.2 0.3-0.2 0.2-0.3 0.2-0.3q0.3-0.2 0.8-0.7t5.2-10l4.8-9.5 0.2-1.5q0.3-1.5 1.3-11l1-9.5 0.3 0.2 0.2 0.3 2 0.5 2 0.5 66.5 24q66.5 24 95.5 31.5t64.5 16.5 42.5 13.5 9.8 9.2q2.7 4.8 2.7 9.8v5h-0.5v3l0.2 1.5q0.3 1.5 1.8 8t-0.8 7.3q-2.2 0.7-9.2 6.2t-31 8.5l-24 3 3.5 0.5 3.5 0.5-1 0.5-1 0.5-4 0.5q-4 0.5-52 3.5t-61 7-17.8 7.3q-4.7 3.2-7.2 7.2t-3 15.5-3.5 18l-3 6.5-0.5 1-0.5 1-0.5 1-0.5 1-0.5 1-0.5 1-0.3 0.2-0.2 0.3-0.2 0.3-0.3 0.2h-0.5l-0.2 0.5q-0.3 0.5-0.8 1.5t-3.8 4q-3.2 3-3.4 4-0.3 1-13.6 6.8-13.2 5.7-18.7 7.2t-13 0.8l-7.5-0.8-0.2 0.5q-0.3 0.5-0.8 2t-8.2 5.7q-7.8 4.3-12.3 8.3t-21 11-55.5 25.5-53.5 24.5-42 18-51.5 23-60 25-59 20.5-41 7-21.2-0.2q-3.3-0.8-5-1.3l-1.8-0.5v-2l-1-0.2-1-0.3-0.2-0.3-0.3-0.2-0.3-0.2-0.2-0.3-1-0.5-1-0.5v-0.5l-5-0.2q-5-0.3-18-0.3t-21-3.5-15-10-14.8-19.2q-7.7-12.8-27.2-60.8t-29-73.5-10-31.5 0.8-9.5q1.2-3.5 2.2-3.7 1-0.3 1.5-1.6 0.5-1.2 4-3 3.5-1.7 4-9.4l0.5-7.8-0.2-2.5q-0.3-2.5-0.6-19.5l-0.2-17-0.2-0.5-0.3-0.5-0.3-2-0.2-2 2-0.2q2-0.3 5-0.8t4.2-3.8q1.3-3.2 5-7.2l3.8-4 0.2-0.5 0.3-0.5 0.3-0.2 0.2-0.3 3-0.5 3-0.5 71-8.5q71-8.5 75.5-8.8l4.5-0.2v-2l-1-0.2-1-0.3v-0.5l-0.5-0.2-0.5-0.3-0.2-0.3-0.3-0.2-0.3-0.2-0.2-0.3-0.2-0.3q-0.3-0.2-4.8-4.7t-5.5-8.5-2.7-5.2q-1.8-1.3-4.8-9.6l-3-8.2h-0.5l-0.5-2.5-0.5-2.5v-5l0.5-2.5q0.5-2.5 2.5-6.5t9.7-10.8q7.8-6.7 9-9.4 1.3-2.8 11.6-7l10.2-4.3 0.2-0.3 0.3-0.2v-4.5q0-4.5-0.5-6t-6.8-7.7l-6.2-6.3-0.2-0.3-0.3-0.2-0.3-0.2q-0.2-0.3-2.2-2.3l-2-2v-0.5l-0.5-0.2-0.5-0.3v-0.5h-0.5l-0.3-1-0.2-1h-2v-3l1.5 0.2 1.5 0.3 21.5 4.5q21.5 4.5 26.5 4.2 5-0.2 4-2-1-1.7 9 0.3t23 5.5 13.5 3.8l0.5 0.2 1.5 0.2 1.5 0.3 2 0.5 2 0.5 2 0.5q2 0.5 5 1.2 3 0.8 3-0.2t5-2.8q5-1.7 6.2-5 1.3-3.2 4.3-15.2t10-31 8-30 0.3-14.5q-0.8-3.5-2.8-3.5t-2-1 1-1.2l1-0.3-2-0.5q-2-0.5-4-0.5t-1 0.5-3 2.5-8.5 2.5-13-3.8q-8.5-4.2-8.5-5.2t-1-0.8q-1 0.3-2.2-1-1.3-1.2-2.8-1.7t-3.2-0.7q-1.8-0.3-3-2.6-1.3-2.2-9.6-6l-8.2-3.7-1-0.3q-1-0.2-3-3.2l-2-3-2.5-0.2q-2.5-0.3-4.5-0.6-2-0.2-2.2-1.2-0.3-1-4.6-2.2l-4.2-1.3-3-0.5-3-0.5-1-0.5-1-0.5 0.2-0.3 0.3-0.2 0.3-0.2 0.2-0.3 2.5-0.5 2.5-0.5 1-0.5 1-0.5 7.5-1q7.5-1 9.3-2.3 1.7-1.2 0-1.7-1.8-0.5-0.6-2.5 1.3-2 1.8-3l0.5-1 0.3-0.2 0.2-0.3 0.2-0.3 0.3-0.2 0.3-0.2 0.2-0.3 0.2-0.3 0.3-0.2 0.3-0.2 0.2-0.3 1-0.5 1-0.5 0.2-0.3 0.3-0.2 0.3-0.2 0.2-0.3-1-0.3-1-0.2-2 0.2q-2 0.3-4.5 1.3t-6.5-3.5l-4-4.5-0.2-0.3-0.3-0.2-0.5-1-0.5-1v-8l0.3-0.2 0.2-0.3 0.2-0.3 0.3-0.2 0.3-0.2 0.2-0.3 2-1q2-1 3.5-1.5l1.5-0.5 1.5-0.3 1.5-0.2v-0.5l0.2-0.3 0.3-0.2 0.5-1 0.5-1v-1l-0.3-0.2-0.2-0.3h-5l-2 0.3-2 0.2-0.2 0.5-0.3 0.5-0.3 0.2-0.2 0.3-1 0.5-1 0.5-0.2 0.3-0.3 0.2-0.3 0.2-0.2 0.3-0.2 0.3-0.3 0.2-0.3-0.2-0.2-0.3-0.2-0.3-0.3-0.2-0.5-1-0.5-1-1-4q-1-4-0.5-11.5t4.8-14.3q4.2-6.7 10.7-12.2t16-10.5 8.7-5.7q-0.7-0.8 3-2.6 3.8-1.7 23.8-1.7t39.5 4.5 39.5 12.5 34 16.5 21.2 14.8q7.3 6.2 9.8 9.7t2.2 4.7q-0.2 1.3-1 1.6-0.7 0.2 0 3.2 0.8 3 1.8 3t5.2 8.5q4.3 8.5 4.8 9.5z" fill="#151719" stroke="#151719"/>
  <path d="m583.5 392.8l0.5 0.2v0.5l0.2 0.3 0.3 0.2 0.3 0.2 0.2 0.3 0.2 0.3 0.3 0.2 0.3 0.2 0.2 0.3 0.2 0.3 0.3 0.2 0.3 0.2 0.2 0.3 0.2 0.3 0.3 0.2 0.3 0.2 0.2 0.3 4.5 2.5q4.5 2.5 27 5t33.3 5.8q10.7 3.2 15 8 4.2 4.7 5.7 5.2l1.5 0.5 1.5 0.3 1.5 0.2 6.2-1q6.3-1 8-2.8 1.8-1.7 2.3-1.4l0.5 0.2v0.5l0.2 0.3 0.3 0.2 0.3 0.2 0.2 0.3 2 0.5 2 0.5 69.5 17.5q69.5 17.5 98.5 28t42.5 16 14.5 6l1 0.5 1.5 0.5 1.5 0.5 0.5 0.3 0.5 0.2v0.5l0.2 0.3 0.3 0.2 0.3 0.2 0.2 0.3 0.2 0.3 0.3 0.2 0.5 1 0.5 1 0.3 0.2 0.2 0.3h-4.5q-4.5 0-19.5 1t-28.5 3-43 10-44.5 10-22.5 1.7l-7.5-0.2-0.5-0.2q-0.5-0.3-4.5-6.6-4-6.2-6.8-8.2-2.7-2-18.4-5.5l-15.8-3.5v-0.5l-2.5-0.5-2.5-0.5-2.5-0.5q-2.5-0.5-84.5-19.2-82-18.8-83.2-21.8-1.3-3-1.8-8t-4.8-10l-4.2-5-0.2-0.5q-0.3-0.5-1.8-2.5l-1.5-2v-2l0.5-1 0.5-1 0.3-0.2 0.2-0.3 0.2-0.3 0.3-0.2 0.3-0.2q0.2-0.3 0.7-1l0.5-0.8h0.2q0.3 0 0.6-0.5l0.2-0.5 12.5-3.8q12.5-3.7 13.5-4.2l1-0.5 0.2-0.3 0.3-0.2 0.3-0.2 0.2-0.3 0.2-0.3 0.3-0.2 0.3-0.2 0.2-0.3 0.2-0.3 0.3-0.2 0.3-0.2 0.2-0.3 0.2-0.3 0.3-0.2v-5l-0.3-0.2-0.2-0.3-0.2-0.3-0.3-0.2-0.3-0.2-0.2-0.3-0.2-0.3-0.3-0.2-0.3-0.2-0.2-0.3-0.2-0.3-0.3-0.2h-0.5l-0.2-0.5q-0.3-0.5-0.6-0.5h-0.2l-0.2-0.5-0.3-0.5h-0.5v-4l5.5 0.2q5.5 0.3 6.5 0l1-0.2 2-0.2 2-0.3 0.2-0.3 0.3-0.2 0.3-0.2 0.2-0.3 2-0.5 2-0.5 1.2 0.3q1.3 0.2 2 1 0.8 0.7 1.3 1z" fill="#151719" stroke="#151719"/>
  <path d="m156.2 530l-0.2-17 27.8 37.5q27.7 37.5 28 38l0.2 0.5v0.2q0 0.3 0.5 0.6l0.5 0.2 0.2 0.5q0.3 0.5 0.8 1.5l0.5 1 0.3 0.2 0.2 0.3 0.2 0.3 0.3 0.2 0.3 0.2 0.2 0.3 27.8 38.7q27.7 38.8 28 39.8 0.2 1 82.2-22.5t82-24.5 1.5-1 2.5-2.2q1-2.3 130.5-39.3t135.7-38.3q6.3-1.2 6.8-0.2t0.8 0q0.2-1 4.2-1.2 4-0.3 30.2-8 26.3-7.8 26.6-8.8l0.2-1h0.5l0.5 1 0.5 1 0.3 0.2 0.2 0.3 0.2 0.3 0.3 0.2 1 2.5q1 2.5 2 2.5t1 17 1 22.5 1 10.5-0.5 7l-0.5 2v2l0.3 1.5 0.2 1.5-0.2 0.5q-0.3 0.5-0.8 1.5t-3.8 4q-3.2 3-3.4 4-0.3 1-13.6 6.8-13.2 5.7-18.7 7.2t-13 0.8l-7.5-0.8-1-0.2q-1-0.3-0.8-0.6 0.3-0.2-2-0.4l-2.2-0.3-2-0.5-2-0.5-1.5-0.5-1.5-0.5 1-0.5 1-0.5 0.2-0.3 0.3-0.2 0.3-0.2 0.2-0.3 0.2-0.3 0.3-0.2 0.3-0.5 0.2-0.5h0.5l0.3-0.2 0.2-0.3 1-0.5 1-0.5 28.2-11.3q28.3-11.2 28.3-20.7t-0.3-9.7l-0.2-0.3-0.2-0.3-0.3-0.2-0.3-0.2-0.2-0.3 0.2-0.3 0.3-0.2 0.3-0.2 0.2-0.3 0.2-0.3 0.3-0.2 0.3-1 0.2-1-1 0.2-1 0.3-1 0.5-1 0.5-2 0.5q-2 0.5-89 31l-87 30.5-1.5 0.5-1.5 0.5v0.5l-1.5 0.2q-1.5 0.3-156 53.8t-160.5 44.5-58.2-93.7q-52.3-84.8-53-84.8h-1.8l-0.2-2.5q-0.3-2.5-0.6-19.5zm555 16.8q-0.2-0.3 0-0.6 0.3-0.2 0.3 0.3t-0.3 0.3z" fill="#25282C" stroke="#25282C"/>
  <path d="m770 568l1-0.5 1-0.3 1-0.2-0.2 1-0.3 1-0.3 0.2-0.2 0.3-0.2 0.3-0.3 0.2-0.3 0.2-0.2 0.3 0.2 0.3 0.3 0.2 0.3 0.2 0.2 0.3 0.2 0.3q0.3 0.2 0.3 9.7t-28.3 20.7l-28.2 11.3-1 0.5-1 0.5-0.2 0.3-0.3 0.2h-0.5l-1 0.2q-1 0.3-203.5 78.8l-202.5 78.5-1.5 0.5-1.5 0.5-1 0.5-1 0.5v0.5l-1.5 0.2q-1.5 0.3-12 3.8l-10.5 3.5-0.2-0.3-0.3-0.2-0.5-1q-0.5-1-3.2-6.5l-2.8-5.5 0.2-1 0.3-1v-7.5q0-3.5 0.7-2.7 0.8 0.7 1-1.6 0.3-2.2-0.4-1.4-0.8 0.7-1-1.6l-0.3-2.2 0.3 0.2 0.2 0.3h1l0.2-0.3 0.3-0.2 0.5-1.5 0.5-1.5 2.3 2.2q2.2 2.3 29.2-7.2t128.2-46.2q101.3-36.8 127.6-46.6 26.2-9.7 27.7-10.2l1.5-0.5 1-0.3 1-0.2v-2h2l0.2-1 0.3-1 0.3-0.2 0.2-0.3-1-0.5-1-0.5-0.2-0.3-0.3-0.2-0.3 0.2-0.2 0.3-1 0.5-1 0.5-1 0.3-1 0.2v-2.5l1.5-0.5 1.5-0.5 87-30.5q87-30.5 89-31l2-0.5 1-0.5z" fill="#25282C" stroke="#25282C"/>
  <path d="m331 350v-1l6.2 3.5q6.3 3.5 11.3 8.5t6.3 12q1.2 7 16.2 11.8 15 4.7 17 5.2l2 0.5 2 0.5 2 0.5 1 0.5 1 0.5 1.5 0.5 1.5 0.5h-10q-5 0-13.5 0.5l-8.5 0.5-1.5 0.5-1.5 0.5-0.2 0.3-0.3 0.2-0.3 0.2-0.2 0.3 0.2 0.3 0.3 0.2 0.3 0.2 0.2 0.3 1 0.5 1 0.5 1 0.5 1 0.5 1.5 0.5 1.5 0.5 41 11.5q41 11.5 64.5 17t26 6l2.5 0.5 2.5 0.3 2.5 0.2-0.2 0.5-0.3 0.5-0.3 0.2-0.2 0.3-2.5 0.5-2.5 0.5-2.5 0.5-2.5 0.5 0.2 0.3 0.3 0.2 0.3 0.2 0.2 0.3 0.2 0.3 0.3 0.2 0.3 0.2 0.2 0.3 2 0.5 2 0.5 8.2 2.7q8.3 2.8 9.3 6.3t1 6.5v3l-0.5 1q-0.5 1-2.2 3.2-1.8 2.3-22.8 2.3t-31-2.5l-10-2.5-1-0.3-1-0.2-0.5-0.2-0.5-0.3-3-0.5q-3-0.5-12.5-0.5t-13-1.5-29.5-8-50-15.5-28.2-12.3l-4.3-3.2-0.3-0.2-0.2-0.3-1-0.5-1-0.5-0.2-0.3-0.3-0.2-0.3 0.2-0.2 0.3-0.2 0.3-0.3 0.2-0.5 3.5-0.5 3.5-0.3 2.5-0.2 2.5h-0.5l-0.5-2.5-0.5-2.5v-5l0.5-2.5q0.5-2.5 2.5-6.5t9.7-10.8q7.8-6.7 9-9.4 1.3-2.8 11.6-7l10.2-4.3 0.2-0.3 0.3-0.2v-4.5q0-4.5-0.5-6t-6.8-7.7l-6.2-6.3-0.2-0.3-0.3-0.2-0.3-0.2q-0.2-0.3-2.7-2-2.5-1.8-2.5-2.8z" fill="#7a7d7e" stroke="#7a7d7e"/>
  <path d="m709 499l1-0.5 3.5-0.3 3.5-0.2 15.8 3.5q15.7 3.5 18.4 5.5 2.8 2 6.8 8.2 4 6.3 4.5 6.6l0.5 0.2v0.5l2 0.5 2 0.5 2 0.5 2 0.5 2 0.5q2 0.5 2 0.8v0.2l-0.2 1q-0.3 1-31 10-30.8 9-31 8-0.3-1-0.8 0t-6.2 1.2q-5.8 0.3-135.3 37.3t-130.5 39.3q-1 2.2-2.5 2.2t-1.5 1-82 24.5-82.2 22.5q-0.3-1-28-39.8l-27.8-38.7-0.2-0.3-0.3-0.2-0.3-0.2-0.2-0.3-0.2-0.3-0.3-0.2-0.3-1-0.2-1h-2v-2l0.5-0.2 0.5-0.3 0.2-0.3 0.3-0.2 0.3 0.2 0.2 0.3 0.2 0.3 0.3 0.2 0.3 0.2 0.2 0.3h2q1 0 3 0.5t1.8-2.2l-0.3-2.8 0.3 0.2 0.2 0.3 0.2 0.3 0.3 0.2 0.3 0.2 0.2 0.3 3 0.7q3 0.8 27.2 31.3 24.3 30.5 24.8 31.5l0.5 1 0.3 0.2 0.2 0.3 0.2 0.3 0.3 0.2 0.3 0.2 0.2 0.3 0.2 0.3 0.3 0.2 0.3 0.2 0.2 0.3 0.2 0.3 0.3 0.2 0.3 0.2 0.2 0.3 0.2 0.3 0.3 0.2 0.3 0.2 0.2 0.3h2l0.2-0.3 0.3-0.2 0.3-0.2 0.2-0.3-0.2-0.3-0.3-0.2v-4.5q0-4.5 1.5-15.5t-0.2-15q-1.8-4-2.8-4t-1.2-1q-0.3-1-2-2-1.8-1-6-8.5-4.3-7.5-5.6-8-1.2-0.5-1.2-1.5t-1-1h-1l0.2-1 0.3-1 0.3-0.2 0.2-0.3-0.2-0.3-0.3-0.2-0.5-1-0.5-1-0.3-1.5-0.2-1.5h0.5l0.3 0.2 0.2 0.3 0.2 0.3 0.3 0.2 0.3 1 0.2 1 1 0.2 1 0.3 0.2 0.3 0.3 0.2 0.3 0.2 0.2 0.3 0.2 0.3 0.3 0.2 10.7 11.2q10.8 11.3 11.8 11.8l1 0.5h1l1-0.5 1-0.5 1.5-0.5 1.5-0.5 1-0.3 1-0.2 0.2-1 0.3-1 0.5-1q0.5-1 0.8-2 0.2-1 1.2-1.2 1-0.3 0-0.6-1-0.2-0.8-3.2 0.3-3-1-5-1.2-2-0.2-2t1-4-1-4.2q-1-0.3 0-0.6 1-0.2 1-4.2t1.5-4.2q1.5-0.3 0-1-1.5-0.8-1.3-3.3 0.3-2.5 1.6-3 1.2-0.5 1-1.5-0.3-1 1.2-5.5t6-13 8.2-11.3l3.8-2.7 0.2-0.3 0.3-0.2 0.3-0.2 0.2-0.3 1.5-0.3 1.5-0.2h3l1.5 0.2 1.5 0.3 3.5 0.5 3.5 0.5 1 0.3 1 0.2v0.5l-1.5 0.3-1.5 0.2-1.8 4q-1.7 4-1.2 14t1.8 14.8q1.2 4.7 2.4 5.4 1.3 0.8 1.8 2.8t3 5.5 2.8 6q0.2 2.5 1.7 2.5t1.5 1 4.5 1.8q4.5 0.7 75-15.8t83.5-20.5 12.2-4.7q-0.7-0.8-0.7-9.8t0.7-11.5q0.8-2.5-0.2-2.5h-1v-1h1l2-0.2 2-0.3 6-1.5q6-1.5 8-1.8l2-0.2 2 0.2 2 0.3 0.2 0.3 0.3 0.2 0.3 0.2 0.2 0.3 1 0.5 1 0.5 2.2 2.3q2.3 2.2 6 4 3.8 1.7 10.8 3.2t26-4 40.5-14.5 36-13 20-4.5 8-1l2.5-0.5 1-0.5zm-492 93q0-1 1-1t1 1-1 1-1-1zm134.2 1.2q0.3-0.2 0.6 0 0.2 0.3-0.3 0.3t-0.3-0.3z" fill="#787b7c" stroke="#787b7c"/>
  <path d="m994 480.8l3 0.2v8h-0.5l-0.5 1.5q-0.5 1.5-2.5 4t-7.3 5.5q-5.2 3-5.4 4-0.3 1-13 0.8-12.8-0.3-12.6-2 0.3-1.8-11.4-6l-11.8-4.3-1-0.3-1-0.2-0.5-0.2-0.5-0.3-1.5-0.5-1.5-0.5-1-0.5q-1-0.5-14.5-6t-42.5-16-98.5-28l-69.5-17.5-2-0.5-2-0.5-0.2-0.3-0.3-0.2-0.3-0.2-0.2-0.3v-0.5h0.5l0.3-0.2 0.2-0.3 0.2-0.3 0.3-0.2 0.3-0.2 0.2-0.3 0.2-0.3 0.3-0.2 0.3-0.2 0.2-0.3 0.2-0.3q0.3-0.2 0.8-0.7t5.2-10l4.8-9.5h0.5l1.3-0.8q1.2-0.7 94.2 28.8t139.5 42.5 49.5 13.3z" fill="#494948" stroke="#494948"/>
  <path d="m606 206l0.5 1 0.5 2.5 0.5 2.5 0.3 1.5 0.2 1.5-0.5-0.2-0.5-0.3-0.2-0.3-0.3-0.2-0.3-0.2-0.2-0.3-0.2-0.3-0.3-0.2-0.3-0.2-0.2-0.3-0.2-0.3-0.3-0.2-0.3-0.2-0.2-0.3-0.2-0.3-0.3-0.2-0.3-0.2-0.2-0.3-0.2-0.3-0.3-0.2-0.3-0.2-0.2-0.3-0.2-0.3q-0.3-0.2-1.3-1.7t-6-3.5-35.7-17.8q-30.8-15.7-41.3-16.7t-21.5-4.5-38.5-7-36.5-4-17.5 1.8q-8.5 2.2-8.5 3.2t-3.2 3.5q-3.3 2.5-4 9.5l-0.8 7h3l-0.2 0.5-0.3 0.5-0.3 0.2-0.2 0.3-1 0.5-1 0.5-0.2 0.3-0.3 0.2-0.3 0.2-0.2 0.3-0.2 0.3-0.3 0.2-0.3-0.2-0.2-0.3-0.2-0.3-0.3-0.2-0.5-1-0.5-1-1-4q-1-4-0.5-11.5t4.8-14.3q4.2-6.7 10.7-12.2t16-10.5 8.7-5.7q-0.7-0.8 3-2.6 3.8-1.7 23.8-1.7t39.5 4.5 39.5 12.5 34 16.5 21.2 14.8q7.3 6.2 9.8 9.7t2.2 4.7q-0.2 1.3-1 1.6-0.7 0.2 0 3.2 0.8 3 1.8 3t5.2 8.5q4.3 8.5 4.8 9.5z" fill="#838788" stroke="#838788"/>
  <path d="m523.5 530.2l1.5-0.2h4q1 0 0.2 2.5-0.7 2.5-0.7 11.5t0.7 9.8q0.8 0.7-0.2 1.2t-68.5 17.5-85 20-20.7 1.7q-3.3-1.2-3.8-4.2t-3-6.5-3-5.5-1.8-2.8q-1.2-0.7-2.4-5.4-1.3-4.8-1.8-14.8t1.2-14l1.8-4 1.5-0.2 1.5-0.3v-0.5l31 1.8q31 1.7 66.5 0.2t57.5-4.5 23.5-3.3z" fill="#202020" stroke="#202020"/>
  <path d="m712 615.2l1-0.2-0.2 0.5-0.3 0.5-0.3 0.2-0.2 0.3-0.2 0.3-0.3 0.2-0.3 0.2-0.2 0.3-1 0.5-1 0.5 1.5 0.5 1.5 0.5 2 0.5 2 0.5 2.2 0.3q2.3 0.2 2 0.4-0.2 0.3 0.8 0.6l1 0.2-0.2 0.5q-0.3 0.5-0.8 2t-8.2 5.7q-7.8 4.3-12.3 8.3t-21 11-55.5 25.5-53.5 24.5-42 18-51.5 23-60 25-59 20.5-41 7-21.2-0.2q-3.3-0.8-5-1.3l-1.8-0.5v-2l-1-0.2-1-0.3-0.2-0.3-0.3-0.2-0.3-0.2-0.2-0.3-1-0.5-1-0.5v-0.5l1-0.2 1-0.3 2-0.5q2-0.5 7.5-3l5.5-2.5 1-0.5 1-0.5 1-0.5 1-0.5 1-0.5 1-0.5 1-0.5 1-0.5h-5l-1.5-0.3-1.5-0.2v-0.5l1-0.5 1-0.5 1.5-0.5 1.5-0.5 202.5-78.5q202.5-78.5 203.5-78.8z" fill="#d7d8d9" stroke="#d7d8d9"/>
  <path d="m403 235l-2-3 29.2 5.5q29.3 5.5 36 6.3 6.8 0.7 37.6 11.4 30.7 10.8 41 15.6 10.2 4.7 14.7 6.2t9.5 5 6 4l1 0.5 1.5 0.5 1.5 0.5 1 0.5 1 0.5h2l0.2-0.3 0.3-0.2v-2l-0.3-0.2-0.2-0.3-0.2-0.3-0.3-0.2-0.3-0.2-0.2-0.3-0.2-0.3-0.3-0.2-0.3-0.2-0.2-0.3-0.2-0.3-0.3-0.2-0.3-0.2-0.2-0.3-0.2-0.3-0.3-0.2-0.3-0.2-0.2-0.3-1-0.5-1-0.5-0.2-0.3-0.3-0.2-0.3-1-0.2-1 1 0.2 1 0.3 0.2 0.3 0.3 0.2 0.3 0.2 0.2 0.3 0.2 0.3 0.3 0.2 0.3 0.2 0.2 0.3 1 0.5 1 0.5 0.2 0.3 0.3 0.2 0.3 0.2 0.2 0.3 0.2 0.3 0.3 0.2 0.3 0.2 0.2 0.3 3.8 4.3q3.7 4.2 3.2 8.2t-3.8 6.8q-3.2 2.7-5 3.4-1.7 0.8-2.7 3.3t-1.3 6.5q-0.2 4 2.6 5.5 2.7 1.5 4.7 3.5t2.3 5.5q0.2 3.5 1.2 3.5t1.2-1q0.3-1 0.8-2l0.5-1 0.5 1 0.5 1-0.5 9.5q-0.5 9.5-3 16t-4 12.5-5 11.5-3.8 5.7l-0.2 0.3-0.2 0.3-0.3 0.2-0.3 0.2-0.2 0.3-0.2 0.3-0.3 0.2-0.3 0.2-0.2 0.3-0.2 0.3-0.3 0.2-0.3 0.2-0.2 0.3-0.2 0.3-0.3 0.2-0.3 0.2-0.2 0.3-1 0.5-1 0.5v0.5l-1 0.2q-1 0.3-6.5 0l-5.5-0.2 0.8 2q0.7 2 1 3l0.2 1-1-0.2-1-0.3-0.2-0.3-0.3-0.2-0.3-0.2-0.2-0.3-0.2-0.3q-0.3-0.2-7.6-2-7.2-1.7-5.7-0.7t-4 1-10.5-1-27.2-7.7q-22.3-6.8-21-7.3 1.2-0.5 1-1.5-0.3-1-22.6-7.2l-22.2-6.3-2-0.5-2-0.5-1.5-0.3-1.5-0.2v-2l1.5 0.2 1.5 0.3 2 0.5 2 0.5 2 0.5q2 0.5 5 1.2 3 0.8 3-0.2t5-2.8q5-1.7 6.2-5 1.3-3.2 4.3-15.2t10-31 8-30 0.3-14.5q-0.8-3.5-2.8-3.5t-2-1 1-1.2l1-0.3-2-0.5q-2-0.5-4-0.5t-1 0.5-3 2.5-8.5 2.5-13-3.8q-8.5-4.2-8.5-5.2t-1-0.8q-1 0.3-2.2-1-1.3-1.2-2.8-1.7t-3.2-0.7q-1.8-0.3-3-2.6-1.3-2.2-9.6-6l-8.2-3.7-1-0.3q-1-0.2-3-3.2z" fill="#d1d2d1" stroke="#d1d2d1"/>
  <path d="m156.5 559.8l0.5-7.8h1l1.2 10q1.3 10 53.8 104.5t53 95.5l0.5 1 0.5 1 0.5 1 0.5 1 0.5 1 0.5 1 0.5 1h0.5l2.8 5.5q2.7 5.5 3.2 6.5l0.5 1 0.3 0.2 0.2 0.3 10.5-3.5q10.5-3.5 12-3.8l1.5-0.2 1.5 0.2 1.5 0.3h5l-1 0.5-1 0.5-1 0.5-1 0.5-1 0.5-1 0.5-1 0.5-1 0.5-5.5 2.5q-5.5 2.5-7.5 3l-2 0.5-1 0.3-1 0.2-5-0.2q-5-0.3-18-0.3t-21-3.5-15-10-14.8-19.2q-7.7-12.8-27.2-60.8t-29-73.5-10-31.5 0.8-9.5q1.2-3.5 2.2-3.7 1-0.3 1.5-1.6 0.5-1.2 4-3 3.5-1.7 4-9.4z" fill="#cfcfd0" stroke="#cfcfd0"/>
  <path d="m531.8 436.5l-0.8-4.5 4.2 5q4.3 5 4.8 10t1.8 8q1.2 3 83.2 21.8 82 18.7 84.5 19.2l2.5 0.5 2.5 0.5 2.5 0.5v0.5l-3.5 0.2-3.5 0.3-1 0.5-1 0.5-2.5 0.5q-2.5 0.5-8 1t-20 4.5-36 13-40.5 14.5-26 4-10.8-3.2q-3.7-1.8-6-4l-2.2-2.3-1-0.5-1-0.5-0.2-0.3-0.3-0.2-0.3-0.2-0.2-0.3-2-0.3-2-0.2v-0.5l2.5-0.5 2.5-0.5 2-0.5q2-0.5 12.5-4t15.7-7.2q5.3-3.8 5.3-13.8t-3.7-12.2q-3.8-2.3-18.3-5.8t-18.5-3.5-4.5 1.7l-0.5 1.8h-2v-6.5q0-6.5-1-6.5t-1.2-2q-0.3-2-1.3-3t-1.7-1.5q-0.8-0.5-1.8-6.3-1-5.7-0.2-8 0.7-2.2-0.8-3.7t-2.2-6z" fill="#9c9f9f" stroke="#9c9f9f"/>
  <path d="m710.5 384.5l1-9.5 0.3 0.2 0.2 0.3 2 0.5 2 0.5 66.5 24q66.5 24 95.5 31.5t64.5 16.5 42.5 13.5 9.8 9.2q2.7 4.8 2.7 9.8v5h-0.5v-5l-3-0.2q-3-0.3-49.5-13.3t-139.5-42.5-94.2-28.8l-1.3 0.8h-0.5l0.2-1.5q0.3-1.5 1.3-11z" fill="#878b8b" stroke="#878b8b"/>
  <path d="m601.8 209.2l0.2 0.3 0.2 0.3 0.3 0.2 0.3 0.2 0.2 0.3 0.2 0.3 0.3 0.2 0.3 0.2 0.2 0.3 0.2 0.3 0.3 0.2 0.3 0.2 0.2 0.3 0.2 0.3 0.3 0.2 0.3 0.2 0.2 0.3 0.2 0.3 0.3 0.2 0.3 0.2 0.2 0.3 0.5 0.3 0.5 0.2 0.2 1q0.3 1 0.3 8t-1.5 10.5-8.2 10.3q-6.8 6.7-8.6 10-1.7 3.2-7.4 6l-5.8 2.7-2 0.5-2 0.5-0.2 0.3-0.3 0.2-0.3 0.2-0.2 0.3-0.2 0.3-0.3 0.2h-0.5v-7l1-0.2 1-0.3 0.2-0.3 0.3-0.2 1-1q1-1 1.5-2l0.5-1 0.3-0.2 0.2-0.3 0.2-0.3 0.3-0.2 0.3-0.2 0.2-0.3 0.2-0.3 0.3-0.2 0.3-0.2 0.2-0.3 0.2-0.3 0.3-0.2 0.3-0.2 0.2-0.3 0.2-0.3 0.3-0.2 0.3-0.2 0.2-0.3-1-0.5-1-0.5v-1l0.2-0.3 0.3-0.2 0.3-0.2 0.2-0.3 1.5-0.3 1.5-0.2-0.2-1.5-0.3-1.5-0.5-1-0.5-1-0.3-0.2-0.2-0.3-0.2-0.3-0.3-0.2-0.3-0.2q-0.2-0.3-1.2-0.8t-8-6-25-14.5-40.5-16.5-49-13-42.5-5.8l-16-0.2v-0.5l0.2-0.3 0.3-0.2 0.5-1 0.5-1v-1l-0.3-0.2-0.2-0.3h-5l-2 0.3-2 0.2h-3l0.8-7q0.7-7 4-9.5 3.2-2.5 3.2-3.5t8.5-3.2q8.5-2.3 17.5-1.8t36.5 4 38.5 7 21.5 4.5 41.3 16.7q30.7 15.8 35.7 17.8t6 3.5 1.3 1.7z" fill="#484846" stroke="#484846"/>
  <path d="m328 345.5v-1.5l1.5 0.2 1.5 0.3 21.5 4.5q21.5 4.5 26.5 4.2 5-0.2 4-2-1-1.7 9 0.3t23 5.5 13.5 3.8l0.5 0.2v2l1.5 0.2 1.5 0.3 2 0.5 2 0.5 22.2 6.3q22.3 6.2 22.6 7.2 0.2 1-1 1.5-1.3 0.5 21 7.3 22.2 6.7 27.2 7.7t10.5 1 4-1 5.5 0.5 8 1.8l1 0.2v0.2q0 0.3 0.5 0.6l0.5 0.2v0.2q0 0.3 0.5 0.6l0.5 0.2h0.5l0.3 0.2 0.2 0.3 0.2 0.3 0.3 0.2 0.3 0.2 0.2 0.3 0.2 0.3 0.3 0.2 0.3 0.2 0.2 0.3 0.2 0.3 0.3 0.2v5l-0.3 0.2-0.2 0.3-0.2 0.3-0.3 0.2-0.3 0.2-0.2 0.3-0.2 0.3-0.3 0.2-0.3 0.2-0.2 0.3-0.2 0.3-0.3 0.2-0.3 0.2-0.2 0.3-1 0.5q-1 0.5-13.5 4.2l-12.5 3.8-0.5 0.2q-0.5 0.3-0.5 0.6v0.2l-1.5 0.2q-1.5 0.3-1.7 0.6-0.3 0.2-3 1.7-2.8 1.5-2.6 5 0.3 3.5-2 2.7-2.2-0.7-3.2 2-1 2.8-4 3.3l-3 0.5-2.5-0.2-2.5-0.3-2.5-0.5q-2.5-0.5-26-6t-64.5-17l-41-11.5-1.5-0.5-1.5-0.5-1-0.5-1-0.5-1-0.5-1-0.5-0.2-0.3-0.3-0.2-0.3-0.2-0.2-0.3 0.2-0.3 0.3-0.2 0.3-0.2 0.2-0.3 1.5-0.5 1.5-0.5 8.5-0.5q8.5-0.5 13.5-0.5h10l-1.5-0.5-1.5-0.5-1-0.5-1-0.5-2-0.5-2-0.5-2-0.5q-2-0.5-17-5.2-15-4.8-16.2-11.8-1.3-7-6.6-12.2-5.2-5.3-10.7-8l-5.5-2.8-0.2-0.5q-0.3-0.5-0.6-0.5h-0.7l-0.3-1-0.2-1h-2v-1.5z" fill="#1b1c1c" stroke="#1b1c1c"/>
  <path d="m171.2 496l3.8-4h3l0.2 1 0.3 1 0.3 0.2 0.2 0.3 0.2 0.3 0.3 0.2 0.3 0.2 0.2 0.3 32.2 33.3q32.3 33.2 32.6 34.2 0.2 1 1.2 1t7.5 8 7.5 8 1 1 1.2 1.5q1.3 0.5 1.6 1.5l0.2 1 0.2 1q0.3 1 0.6 1h0.2l0.2 1.5 0.3 1.5 0.3 0.2 0.2 0.3-0.2 0.3-0.3 0.2-0.3 1-0.2 1h1q1 0 1 1t1.2 1.5q1.3 0.5 5.6 8 4.2 7.5 6 8.5 1.7 1 2 2 0.2 1 1.2 1t2.8 4q1.7 4 0.2 15t-1.5 15.5v4.5l0.3 0.2 0.2 0.3-0.2 0.3-0.3 0.2-0.3 0.2-0.2 0.3h-2l-0.2-0.3-0.3-0.2-0.3-0.2-0.2-0.3-0.2-0.3-0.3-0.2-0.3-0.2-0.2-0.3-0.2-0.3-0.3-0.2-0.3-0.2-0.2-0.3-0.2-0.3-0.3-0.2-0.3-0.2-0.2-0.3-0.2-0.3-0.3-0.2-0.5-1q-0.5-1-24.8-31.5-24.2-30.5-26.7-31t-3.3 1.5q-0.7 2-2.4 1.5-1.8-0.5-1.8 1t-1 1.5-1-1.5-2-1.5h-2l-0.2-0.5q-0.3-0.5-0.6-0.5h-0.2l-0.2-0.5q-0.3-0.5-28-38l-27.8-37.5-0.2-0.5-0.3-0.5-0.3-2-0.2-2 2-0.2q2-0.3 5-0.8t4.2-3.8q1.3-3.2 5-7.2z" fill="#5a5a58" stroke="#5a5a58"/>
  <path d="m331 469.2v-0.2h1.5q1.5 0 1.5 1t5 3.2q5 2.3 13 4.3t8.5 2.3l0.5 0.2h0.5l0.3 0.2 0.2 0.3 0.2 0.3 0.3 0.2 0.3 0.2 0.2 0.3 0.2 0.3 0.3 0.2 0.3 1 0.2 1h3l0.2 1q0.3 1 0.6 1.5l0.2 0.5-8-2.8q-8-2.7-17-1.2t-24 7-19.5 7.8q-4.5 2.2-4.3 10.2 0.3 8 2 11.2 1.8 3.3 9.8 6.8t11.5 4.5 5.5 1.5l2 0.5 2 0.5 2 0.5v0.5l-1.5 0.2-1.5 0.3-0.2 0.3-0.3 0.2-0.3 0.2-0.2 0.3-3.8 2.7q-3.7 2.8-8.2 11.3t-6 13-1.2 5.5q0.2 1-1 1.5-1.3 0.5-0.8 1.5t1 0 0.8 1q0.2 2-0.6 2.5-0.7 0.5 0 1.3 0.8 0.7-0.7 1-1.5 0.2-1.5 4.2t-1 4.2q-1 0.3 0 0.6 1 0.2 0.5 5.4-0.5 5.3 0.3 6 0.7 0.8 0.4 3.8-0.2 3 0.8 3.2 1 0.3 0 0.6-1 0.2-1.2 1.2-0.3 1-0.8 2l-0.5 1-0.3 1-0.2 1-1 0.2-1 0.3-1.5 0.5-1.5 0.5-1 0.5-1 0.5h-1l-1-0.5q-1-0.5-11.8-11.8l-10.7-11.2-0.3-0.2-0.2-0.3-0.2-0.3-0.3-0.2-0.3-0.2-0.2-0.3-1-0.5q-1-0.5-1.5-0.8l-0.5-0.2-0.2-1-0.3-1h-0.5l-0.2-1q-0.3-1-1.6-1.5-1.2-0.5-1.2-1.5t-1-1-7.5-8-7.5-8-1.2-1q-0.3-1-32.6-34.2l-32.2-33.3-0.2-0.3-0.3-0.2-0.3-0.2-0.2-0.3-0.2-0.3-0.3-0.2-0.3-1-0.2-1h-3l0.2-0.5 0.3-0.5 0.3-0.2 0.2-0.3 3-0.5 3-0.5 75.2-9.3q75.3-9.2 74.8-9.7t-0.8-0.7l-0.2-0.3v-0.3z" fill="#919393" stroke="#919393"/>
  <path d="m996 490.5l0.5-1.5h0.5l0.2 1.5q0.3 1.5 1.8 8t-0.8 7.3q-2.2 0.7-9.2 6.2t-31 8.5l-24 3 3.5 0.5 3.5 0.5-1 0.5-1 0.5-4 0.5q-4 0.5-52 3.5t-61 7-17.8 7.3q-4.7 3.2-7.2 7.2t-3 15.5-3.5 18l-3 6.5-0.5 1-0.5 1-0.5 1-0.5 1-0.5 1-0.5 1-0.3 0.2-0.2 0.3-0.2 0.3-0.3 0.2h-0.5l-0.2-1.5-0.3-1.5v-2l0.5-2q0.5-2 0.5-7t-1-10.5-1-22.5-1-17-2-2.5l-1-2.5-0.3-0.2-0.2-0.3-0.2-0.3-0.3-0.2-0.5-1-0.5-1h-0.5v-0.2q0-0.3-2-0.8l-2-0.5-2-0.5-2-0.5-2-0.5-2-0.5v-0.5l7.5 0.2q7.5 0.3 22.5-1.7t44.5-10 43-10 28.5-3 19.5-1h4.5l-0.2-0.3-0.3-0.2-0.5-1-0.5-1-0.3-0.2-0.2-0.3-0.2-0.3-0.3-0.2-0.3-0.2-0.2-0.3v-0.5l1 0.2 1 0.3 11.8 4.3q11.7 4.2 11.4 6-0.2 1.7 12.6 2 12.7 0.2 13-0.8 0.2-1 5.4-4 5.3-3 7.3-5.5t2.5-4z" fill="#e1e1e2" stroke="#e1e1e2"/>
  <path d="m531 419.2l1-0.2v1q0 1-1.2 1.5l-1.3 0.5-0.3 0.2-0.2 0.3-0.2 0.3-0.3 0.2-0.5 1-0.5 1v2l1.5 2q1.5 2 1.8 2.5l0.2 0.5 0.8 4.5q0.7 4.5 2.2 6t0.8 3.7q-0.8 2.3 0.2 8 1 5.8 1.8 6.3 0.7 0.5 1.7 1.5t1.3 3q0.2 2 1.2 2t1.2 5.5q0.3 5.5 0.6 6l0.2 0.5-0.5 0.2q-0.5 0.3-0.5 0.6v0.2l-0.2 0.5q-0.3 0.5-3 4.3-2.8 3.7-8.3 8.2l-5.5 4.5-1.5 0.5-1.5 0.5-1 0.5-1 0.5v0.5h-0.5v2l0.3 0.2 0.2 0.3 0.2 0.3q0.3 0.2 0.8 0.7t1 3-1.8 4.3q-2.2 1.7-8.2 3.7t-28 4.5-39 1-21.5-4-5.3-6.2q-0.7-3.8-19.4-10.3l-18.8-6.5-0.2-0.5q-0.3-0.5-0.6-0.5h-0.2l-1-0.2q-1-0.3-5.5-2.6l-4.5-2.2-0.2-0.5q-0.3-0.5-0.6-1.5l-0.2-1h-3l-0.2-1-0.3-1-0.3-0.2-0.2-0.3-0.2-0.3-0.3-0.2-0.3-0.2-0.2-0.3-0.2-0.3-0.3-0.2h-0.5v-0.5l1-0.5 1-0.5h6l17 3q17 3 20.5 3h3.5l-0.2-0.3-0.3-0.2-0.3-0.2-0.2-0.3 1.5-0.5 1.5-0.5-2-0.5-2-0.5-2-0.5q-2-0.5-24.5-7.5l-22.5-7-1.5-0.5-1.5-0.5-0.2-0.3-0.3-0.2-0.3-0.2-0.2-0.3-0.2-0.3-0.3-0.2-0.3-0.2-0.2-0.3-0.2-0.3-0.3-0.2-0.3-0.2-0.2-0.3 1.5-0.5 1.5-0.5h5l0.2-0.3 0.3-0.2 0.3 0.2 0.2 0.3 25 0.5q25 0.5 42.5 2.5t20.5 2.5l3 0.5h5l-0.2-0.3-0.3-0.2-0.3-0.2-0.2-0.3-1-0.5-1-0.5 0.2-0.3 0.3-0.2v-2l-0.3-0.2-0.2-0.3v-0.5l1 0.2 1 0.3 10 2.5q10 2.5 31 2.5t22.8-2.3q1.7-2.2 2.2-3.2l0.5-1v-3q0-3-1-6.5t-9.3-6.3l-8.2-2.7-2-0.5-2-0.5-0.2-0.3-0.3-0.2-0.3-0.2-0.2-0.3-0.2-0.3-0.3-0.2-0.3-0.2-0.2-0.3 2.5-0.5 2.5-0.5 2.5-0.5 2.5-0.5 0.2-0.3 0.3-0.2 0.3-0.5 0.2-0.5 4-0.2q4-0.3 2-1-2-0.8-1-2 1-1.3 1.8-1.6 0.7-0.2 1-1 0.2-0.7 2.4 0 2.3 0.8 2-2.7-0.2-3.5 2.6-5 2.7-1.5 4-2.3 1.2-0.7 2.2-1z" fill="#303233" stroke="#303233"/>
  <path d="m580.2 239.8l0.3 0.2 0.3 0.2 0.2 0.3 0.2 0.3 0.3 0.2 0.5 1 0.5 1 0.3 1.5 0.2 1.5-1.5 0.2-1.5 0.3-0.2 0.3-0.3 0.2-0.3 0.2-0.2 0.3v0.5l-0.5 0.2-0.5 0.3-0.2 0.3-0.3 0.2-0.3 0.2-0.2 0.3-1 0.5-1 0.5-1 0.5q-1 0.5-3 1t-5.8-1.2q-3.7-1.8-17.4-9-13.8-7.3-35.8-15.3t-32-10.3q-10-2.2-10-3.2t-7.5-2.8q-7.5-1.7-26-4.2t-25-1.8l-6.5 0.8-2 0.2q-2 0.3-4.5 1.3t-6.5-3.5l-4-4.5-0.2-0.3-0.3-0.2-0.5-1-0.5-1v-8l0.3-0.2 0.2-0.3 0.2-0.3 0.3-0.2 0.3-0.2 0.2-0.3 2-1q2-1 3.5-1.5l1.5-0.5 1.5-0.3 1.5-0.2 16 0.2q16 0.3 42.5 5.8t49 13 40.5 16.5 25 14.5 8 6 1.2 0.8z" fill="#101010" stroke="#101010"/>
  <path d="m310.2 418.2l0.3-0.2 0.3 0.2 0.2 0.3 1 0.5 1 0.5 0.2 0.3 0.3 0.2 4.3 3.2q4.2 3.3 28.2 12.3t50 15.5 29.5 8 13 1.5 12.5 0.5l3 0.5 0.5 0.3 0.5 0.2v0.5l0.2 0.3 0.3 0.2v2l-0.3 0.2-0.2 0.3 1 0.5 1 0.5 0.2 0.3 0.3 0.2 0.3 0.2 0.2 0.3h-5l-3-0.5q-3-0.5-20.5-2.5t-42.5-2.5l-25-0.5-0.2-0.3-0.3-0.2-0.3 0.2-0.2 0.3h-5l-1.5 0.5-1.5 0.5 0.2 0.3 0.3 0.2 0.3 0.2 0.2 0.3 0.2 0.3 0.3 0.2 0.3 0.2 0.2 0.3 0.2 0.3 0.3 0.2 0.3 0.2 0.2 0.3 1.5 0.5 1.5 0.5 22.5 7q22.5 7 24.5 7.5l2 0.5 2 0.5 2 0.5-1.5 0.5-1.5 0.5 0.2 0.3 0.3 0.2 0.3 0.2 0.2 0.3h-3.5q-3.5 0-20.5-3l-17-3h-6l-1 0.5-1 0.5v0.5l-0.5-0.2q-0.5-0.3-8.5-2.3t-13.5-4.7l-5.5-2.8v-0.2q0-0.3-1-0.6l-1-0.2-0.5-0.2-0.5-0.3-0.2-0.3-0.3-0.2-0.3-0.2-0.2-0.3-0.2-0.3q-0.3-0.2-4.8-4.7t-5.5-8.5-2.7-5.2q-1.8-1.3-4.8-9.6l-3-8.2 0.2-2.5 0.3-2.5 0.5-3.5 0.5-3.5 0.3-0.2 0.2-0.3 0.2-0.3z" fill="#474746" stroke="#474746"/>
  <path d="m607 336l1-0.5 6.5 0.5q6.5 0.5 16 8t30 15 25.5 7.5 6.8 3.7q1.7 3.8 1.2 12.3t-4 16.5-7.2 13q-3.8 5-4.8 5h-1l0.5 0.8q0.5 0.7 1.5 1.2t2 0.8l1 0.2v2h-3l-0.2 1-0.3 1-0.3 0.2-0.2 0.3v0.5l-1.5-0.2-1.5-0.3-1.5-0.5q-1.5-0.5-5.7-5.2-4.3-4.8-15-8-10.8-3.3-33.3-5.8t-27-5l-4.5-2.5-0.2-0.3-0.3-0.2-0.3-0.2-0.2-0.3-0.2-0.3-0.3-0.2-0.3-0.2-0.2-0.3-0.2-0.3-0.3-0.2-0.3-0.2-0.2-0.3-0.2-0.3-0.3-0.2-0.3-0.2-0.2-0.3v-1l0.2-0.3 0.3-0.2 0.3-0.2 0.2-0.3 1-0.5q1-0.5 3.8-3.8 2.7-3.2 7.7-14.2t6.5-23.5l1.5-12.5 0.3-0.2 0.2-0.3 1-0.5z" fill="#4f4f4e" stroke="#4f4f4e"/>
  <path d="m586.5 632.2l1.5-0.2 1 0.2 1 0.3h2l0.2-0.3 0.3-0.2 0.3 0.2 0.2 0.3 1 0.5 1 0.5-0.2 0.3-0.3 0.2-0.3 1-0.2 1h-2v2l-1 0.2-1 0.3-1.5 0.5q-1.5 0.5-27.7 10.2-26.3 9.8-127.6 46.6-101.2 36.7-128.2 46.2t-29.2 7.2l-2.3-2.2-0.5 1.5-0.5 1.5-0.3 0.2-0.2 0.3h-1l-0.2-0.3-0.3-0.2 0.3 2.2q0.2 2.3 1 1.6 0.7-0.8 0.4 1.4-0.2 2.3-1 1.6-0.7-0.8-0.7 2.7v7.5l-0.3 1-0.2 1h-0.5l-0.5-1-0.5-1-0.5-1-0.5-1-0.5-1-0.5-1-0.5-1q-0.5-1-53-95.5t-53.8-104.5l-1.2-10h0.8q0.7 0 53 84.8 52.2 84.7 58.2 93.7t160.5-44.5 156-53.8z" fill="#6b6d6d" stroke="#6b6d6d"/>
  <path d="m556 523l-2 0.5-2.5 0.5-2.5 0.5v0.5l-2 0.2q-2 0.3-8 1.8l-6 1.5-2 0.3-2 0.2h-1.5l-0.3 0.5-0.2 0.5h-2l-0.2-0.5-0.3-0.5-0.3-0.2-0.2-0.3 1.5-0.5 1.5-0.5 2-0.5q2-0.5 4.2-2.8 2.3-2.2 2.3-7.7t-3-9l-3-3.5-0.3-0.2-0.2-0.3-2-0.5-2-0.5-1-0.5-1-0.5-1.5-0.5-1.5-0.5v-1l1-0.5 1-0.5 1.5-0.5 1.5-0.5 5.5-4.5q5.5-4.5 8.3-8.2 2.7-3.8 3-4.3l0.2-0.5h0.2q0.3 0 0.6-0.5l0.2-0.5 2-1.8q2-1.7 18 1.8t21.2 6.2q5.3 2.8 5.3 12.8t-5.3 13.8q-5.2 3.7-15.7 7.2t-12.5 4z" fill="#cccece" stroke="#cccece"/>
  <path d="m360 484.2l8 2.8 4.5 2.2q4.5 2.3 5.5 2.6l1 0.2v0.2q0 0.3 0.5 0.6l0.5 0.2v0.2q0 0.3 0.2 0.6 0.3 0.2-1.4 0.7l-1.8 0.5-0.2 1-0.3 1-0.3 0.2-0.2 0.3 1 0.5 1 0.5-3 1.5q-3 1.5-13.2 4.2-10.3 2.8-16.8 5.8t-6.8 4q-0.2 1-2.4 3-2.3 2-3 6.2-0.8 4.3 1.2 6.3t4 2.5l2 0.5-3.5 0.5-3.5 0.5v0.5h-3v-0.5l-2-0.5-2-0.5-2-0.5q-2-0.5-5.5-1.5t-11.5-4.5-9.8-6.8q-1.7-3.2-2-11.2-0.2-8 4.3-10.2 4.5-2.3 19.5-7.8t24-7 17 1.2z" fill="#d1d3d4" stroke="#d1d3d4"/>
  <path d="m574 251l1-0.5 1-0.5 1-0.5 0.2-0.3 0.3-0.2 0.3-0.2 0.2-0.3 0.5-0.3 0.5-0.2v0.5l1 0.5 1 0.5-0.2 0.3-0.3 0.2-0.3 0.2-0.2 0.3-0.2 0.3-0.3 0.2-0.3 0.2-0.2 0.3-0.2 0.3-0.3 0.2-0.3 0.2-0.2 0.3-0.2 0.3-0.3 0.2-0.3 0.2-0.2 0.3-0.2 0.3-0.3 0.2-0.5 1q-0.5 1-1.5 2l-1 1-0.3 0.2-0.2 0.3-1 0.3-1 0.2v11l-1 0.2-1 0.3 0.2 0.3 0.3 0.2 0.5 1 0.5 1 0.3 0.2 0.2 0.3 2 2q2 2 2.5 2.3l0.5 0.2v0.2q0 0.3 0.5 0.6l0.5 0.2v1q0 1 1 1.2l1 0.3 0.2 0.3 0.3 0.2 0.3 0.2 0.2 0.3 0.2 0.3 0.3 0.2 0.3 0.2 0.2 0.3 0.2 0.3 0.3 0.2 0.3 0.2 0.2 0.3 0.2 0.3 0.3 0.2 0.3 0.2 0.2 0.3 0.2 0.3 0.3 0.2v2l-0.3 0.2-0.2 0.3h-2l-1-0.5-1-0.5-1.5-0.5-1.5-0.5-1-0.5q-1-0.5-6-4t-9.5-5-14.7-6.2q-10.3-4.8-41-15.6-30.8-10.7-37.6-11.4-6.7-0.8-36-6.3l-29.2-5.5-2.5-0.2q-2.5-0.3-4.5-0.6-2-0.2-2.2-1.2-0.3-1-4.6-2.2l-4.2-1.3-3-0.5-3-0.5-1-0.5-1-0.5 0.2-0.3 0.3-0.2 0.3-0.2 0.2-0.3 2.5-0.5 2.5-0.5 1-0.5 1-0.5 7.5-1q7.5-1 9.3-2.3 1.7-1.2 0-1.7-1.8-0.5-0.6-2.5 1.3-2 1.8-3l0.5-1 0.3-0.2 0.2-0.3 0.2-0.3 0.3-0.2 0.3-0.2 0.2-0.3 0.2-0.3 0.3-0.2 0.3-0.2 0.2-0.3 1-0.5 1-0.5 0.2-0.3 0.3-0.2 0.3-0.2 0.2-0.3-1-0.3-1-0.2 6.5-0.8q6.5-0.7 25 1.8t26 4.2q7.5 1.8 7.5 2.8t10 3.2q10 2.3 32 10.3t35.8 15.3q13.7 7.2 17.4 9 3.8 1.7 5.8 1.2t3-1z" fill="#434443" stroke="#434443"/>
  <path d="m379 493v-1l15 5.2q15 5.3 19.2 7 4.3 1.8 5 5.6 0.8 3.7 5.3 6.2t21.5 4 39-1 28-4.5 8.2-3.7q2.3-1.8 1.8-4.3t-1-3-0.8-0.7l-0.2-0.3-0.2-0.3-0.3-0.2v-2h0.5v0.5l1.5 0.5 1.5 0.5 1 0.5 1 0.5 2 0.5 2 0.5 0.2 0.3 0.3 0.2 3 3.5q3 3.5 3 9t-3.3 8q-3.2 2.5-3.2 3.5v1h-1v1h-1v-1q0-1-1.5-0.8l-1.5 0.3 0.2 0.3 0.3 0.2 0.3 0.5 0.2 0.5-1.5 0.2q-1.5 0.3-23.5 3.3t-57.5 4.5-66.5-0.2l-31-1.8-1-0.2-1-0.3-3.5-0.5-3.5-0.5-1.5-0.3-1.5-0.2v-0.5l3.5-0.5 3.5-0.5-2-0.5q-2-0.5-4-2.5t-1.2-6.3q0.7-4.2 3-6.2 2.2-2 2.4-3 0.3-1 6.8-4t16.8-5.8q10.2-2.7 13.2-4.2l3-1.5-1-0.5-1-0.5 0.2-0.3 0.3-0.2 0.3-1 0.2-1 2-0.2q2-0.3 1-0.6-1-0.2-1-1.2z" fill="#a3a5a6" stroke="#a3a5a6"/>
 </g>
</svg>
